<?xml version="1.0" encoding="UTF-8" standalone="no"?>
<!-- Created with Inkscape (http://www.inkscape.org/) -->

<svg
   width="100.85507mm"
   height="83.882553mm"
   viewBox="0 0 100.85507 83.882553"
   version="1.1"
   id="svg1"
   xml:space="preserve"
   xmlns="http://www.w3.org/2000/svg"
   xmlns:svg="http://www.w3.org/2000/svg"><defs
     id="defs1" /><circle
     style="display:none;fill:#cd5204;fill-opacity:1;stroke:none;stroke-width:1.5;stroke-linecap:round;stroke-dasharray:none;stroke-opacity:1"
     id="path11"
     cx="60.802059"
     cy="42.138607"
     r="53.756844" /><g
     id="layer1"
     transform="matrix(0.38404047,0,0,0.38404047,-3.9498639,-16.093322)"
     style="display:none"><g
       id="g3"
       transform="matrix(2.3802362,0,0,2.2350844,-132.51813,-22.766689)"><path
         class="fil6"
         d="m 120.05898,119.57848 -0.0186,-6.7328 -12.5862,-5.9993 -4.2029,3.8965 -9.183703,-11.2913 4.188,-4.4545 -3.3943,-11.1537 -6.4857,-0.4054 0.2073,-14.0664 7.6819,-0.2649 3.796903,-8.592 -4.957903,-5.5545 9.753203,-10.0864 5.209,5.2856 9.7607,-4.4006 0.1143,-6.9071 c 59.2498,-4.644 59.2954,83.591 0.118,80.7268 z"
         id="path15"
         style="clip-rule:evenodd;display:inline;fill:#141993;fill-rule:evenodd;stroke-width:0.01;image-rendering:optimizeQuality;shape-rendering:geometricPrecision;text-rendering:geometricPrecision" /><path
         id="path17"
         style="clip-rule:evenodd;display:inline;fill:#fefefe;fill-rule:evenodd;stroke-width:0.01;image-rendering:optimizeQuality;shape-rendering:geometricPrecision;text-rendering:geometricPrecision"
         class="fil4"
         d="m 127.62038,84.42158 v -9.4025 c 1.6837,0.174 4.6989,0.8545 4.6335,4.6562 -0.0593,3.4434 -3.0521,4.8663 -4.6335,4.7463 z m 0.0308,-43.424215 -0.0305,4.763901 c 6.5112,0.9361 9.55401,2.243955 11.07691,3.714555 l -2.39301,13.87931 c -4.1093,-1.5301 -6.78217,-2.552911 -8.66977,-2.133611 l 0.12211,7.111837 c 16.1664,2.983 11.91274,21.873608 -0.0888,22.340308 l -0.23969,7.032971 c 2.8368,0.1724 5.87635,-0.467734 9.18195,-2.169734 l 2.97642,12.108728 c -2.7312,3.2629 -7.23823,4.04036 -11.77113,4.78136 l -0.0531,5.31356 c 49.4508,-8.0658 39.75943,-75.312885 -0.11137,-76.743185 z m 14.71476,10.317672 c 1.557,0.5987 2.67622,1.744682 3.29582,3.515282 -2.3051,6.5957 -3.01794,9.507345 -3.90354,10.783045 l -2.51229,-1.818747 z m -0.29058,40.26469 c 0.8856,1.2757 1.59845,4.187346 3.90355,10.783043 -0.6196,1.7706 -1.73883,2.91658 -3.29583,3.51528 L 139.5631,93.397873 Z" /><path
         id="rect4"
         style="display:inline;fill:#fc8403;stroke-linecap:round"
         transform="matrix(0.42012638,0,0,0.4474104,73.279799,45.34001)"
         d="m 68.195173,101.77663 h 50.287647 c 0.17678,0 0.31909,0.14231 0.31909,0.31908 v 15.11209 c 0,0.17677 -0.14231,0.31908 -0.31909,0.31908 H 68.195173 c -0.176771,0 -0.319082,-0.14231 -0.319082,-0.31908 v -15.11209 c 0,-0.17677 0.142311,-0.31908 0.319082,-0.31908 z" /><path
         id="rect3"
         style="display:inline;fill:#fefefe;stroke-linecap:round"
         transform="matrix(0.42012638,0,0,0.4474104,73.279799,45.34001)"
         d="M 75.845297,103.50166 H 110.8327 c 0.17678,0 0.31909,0.14231 0.31909,0.31909 v 11.66203 c 0,0.17677 -0.14231,0.31908 -0.31909,0.31908 H 75.845297 c -0.176772,0 -0.319082,-0.14231 -0.319082,-0.31908 v -11.66203 c 0,-0.17678 0.14231,-0.31909 0.319082,-0.31909 z" /><path
         id="rect5"
         style="display:inline;fill:#d12620;stroke-linecap:round"
         transform="matrix(0.42012638,0,0,0.4474104,73.279799,45.34001)"
         d="m 78.395338,106.91421 h 29.887322 c 0.17677,0 0.31909,0.14231 0.31909,0.31908 v 4.83692 c 0,0.17677 -0.14232,0.31909 -0.31909,0.31909 H 78.395338 c -0.176772,0 -0.319082,-0.14232 -0.319082,-0.31909 v -4.83692 c 0,-0.17677 0.14231,-0.31908 0.319082,-0.31908 z" /><path
         id="rect8"
         style="display:inline;fill:#fc8403;stroke-linecap:round"
         transform="matrix(0.42012638,0,0,0.4474104,73.279799,45.34001)"
         d="M 67.916267,45.550594 H 118.54625 V 94.705917 H 67.916267 Z" /><path
         id="rect7"
         style="display:inline;fill:#ffffff;stroke-linecap:round"
         transform="matrix(0.42012638,0,0,0.4474104,73.279799,45.34001)"
         d="m 71.59429,55.38166 h 42.45467 c 0.17677,0 0.31908,0.142311 0.31908,0.319083 V 84.71962 c 0,0.176771 -0.14231,0.319082 -0.31908,0.319082 H 71.59429 c -0.176772,0 -0.319082,-0.142311 -0.319082,-0.319082 V 55.700743 c 0,-0.176772 0.14231,-0.319083 0.319082,-0.319083 z" /><path
         id="rect6"
         style="display:inline;fill:#d12620;stroke-linecap:round"
         transform="matrix(0.42012638,0,0,0.4474104,73.279799,45.34001)"
         d="m 75.03517,58.085201 h 36.4741 c 0.17677,0 0.31908,0.142311 0.31908,0.319083 v 23.693717 c 0,0.176772 -0.14231,0.319083 -0.31908,0.319083 h -36.4741 c -0.176772,0 -0.319083,-0.142311 -0.319083,-0.319083 V 58.404284 c 0,-0.176772 0.142311,-0.319083 0.319083,-0.319083 z" /><path
         id="polygon25"
         style="clip-rule:evenodd;display:inline;fill:#fff000;fill-rule:evenodd;image-rendering:optimizeQuality;shape-rendering:geometricPrecision;text-rendering:geometricPrecision"
         class="fil10"
         transform="matrix(0.01,0,0,0.01,22.700377,-120.60222)"
         d="m 9163.28,20249.34 1019.56,-1699.8 -970.98,866.33 -290.71,-482.59 -1192.79,1642.7 1067.81,-884.53 z" /></g><g
       id="g11"
       transform="matrix(2.3802362,0,0,2.2350844,-132.51813,-22.766689)"
       style="stroke:#fff000;stroke-width:0.903142;stroke-dasharray:none;stroke-opacity:1"><path
         style="font-weight:bold;font-size:16.8243px;line-height:17.3421px;font-family:Arial;-inkscape-font-specification:'Arial Bold';text-align:center;letter-spacing:0.00344133px;word-spacing:0px;text-anchor:middle;display:inline;fill:#fff000;stroke:#fff000;stroke-width:0.903142;stroke-linecap:round;stroke-dasharray:none;stroke-opacity:1"
         d="m 101.23821,116.05736 -8.093238,8.91839 -6.113903,-5.54823 1.369115,-1.5087 4.313191,3.91412 1.915656,-2.11097 -3.723093,-3.37862 1.369115,-1.5087 3.723093,3.37862 3.439348,-3.79001 z m -12.906279,-15.41499 1.477247,2.1943 -1.682035,2.39998 2.688405,3.99336 2.824379,-0.70314 1.440545,2.13979 -12.609803,2.83446 -1.435958,-2.13297 z m -1.452163,6.37484 -2.780426,3.87227 4.615516,-1.14643 z m -2.445535,-5.78392 -1.00757,-2.152972 q 1.051278,-0.599442 1.360855,-1.397814 0.306831,-0.806115 -0.06385,-1.851357 -0.392644,-1.107183 -1.054891,-1.499899 -0.672736,-0.397714 -1.299881,-0.175307 -0.402612,0.142779 -0.596225,0.481645 -0.204101,0.33387 -0.204471,0.996438 0.0034,0.452036 0.155223,2.01071 0.196682,2.004723 -0.205583,2.984146 -0.566169,1.37748 -1.91337,1.85524 -0.867164,0.30752 -1.791173,0.0861 -0.934497,-0.22643 -1.656112,-1.00776 -0.724361,-0.78907 -1.188395,-2.097562 -0.75783,-2.136939 -0.202644,-3.545389 0.55244,-1.416192 2.097212,-2.025034 l 0.913398,2.256096 q -0.822737,0.457379 -1.029138,1.079701 -0.21689,0.617325 0.126331,1.585142 0.354203,0.998787 0.964998,1.418466 0.392297,0.27054 0.833621,0.11404 0.402612,-0.14278 0.568273,-0.585048 0.210136,-0.562633 0.01192,-2.375055 -0.198215,-1.812421 -0.05519,-2.76092 0.132538,-0.953494 0.708825,-1.663409 0.565798,-0.714911 1.642011,-1.096572 0.975559,-0.345966 2.019442,-0.106023 1.043882,0.239944 1.813436,1.082718 0.761812,0.845519 1.286253,2.324343 0.763322,2.152425 0.181396,3.65752 -0.589669,1.507846 -2.414706,2.407836 z m 0.207346,-12.537717 -11.8612,2.085673 -0.421118,-2.394894 11.8612,-2.085674 z m -0.851903,-4.758595 -11.942397,0.229227 -0.04667,-2.43119 9.913668,-0.190286 -0.116032,-6.04512 2.028729,-0.03894 z m -0.01216,-10.279472 -11.769974,-2.550645 0.515001,-2.376475 5.226639,1.132653 -4.186199,-5.933775 0.692467,-3.195396 3.623942,5.425269 8.198229,-3.115482 -0.666369,3.074966 -6.224866,2.03851 1.549447,2.353139 3.556684,0.770761 z M 81.10433,59.512002 q -1.631566,-0.850984 -2.484165,-1.916451 -0.625831,-0.78968 -0.94737,-1.754199 -0.31774,-0.971803 -0.239642,-1.88539 0.09801,-1.218222 0.778036,-2.522018 1.230887,-2.359944 3.431939,-3.00939 2.204851,-0.656731 4.812443,0.703324 2.585741,1.348657 3.316566,3.518032 0.723542,2.165576 -0.503547,4.518236 -1.242284,2.381795 -3.424969,3.031556 -2.189969,0.645962 -4.739291,-0.6837 z m 1.085868,-2.259543 q 1.81366,0.94596 3.190156,0.598401 1.369213,-0.351358 2.041642,-1.640586 0.672429,-1.289229 0.17668,-2.594773 -0.499233,-1.316627 -2.356596,-2.285381 -1.835512,-0.957357 -3.160393,-0.619938 -1.321082,0.330135 -2.016306,1.663067 -0.695223,1.332931 -0.202959,2.627392 0.48498,1.290663 2.327776,2.251818 z m 10.724338,-6.933526 -8.554189,-8.47726 2.561682,-2.584929 7.37322,4.230454 -4.314236,-7.317197 2.567465,-2.590764 8.554192,8.47726 -1.590212,1.60464 -6.733652,-6.673096 5.050922,8.371096 -1.648035,1.662991 -8.4106,-4.98093 6.733652,6.673095 z"
         id="text8"
         aria-label="FASILKOM" /></g><g
       id="g10"
       transform="matrix(2.3802362,0,0,2.2350844,-132.51813,-22.766689)"
       style="stroke:#fff000;stroke-width:0.903142;stroke-dasharray:none;stroke-opacity:1"><path
         style="font-weight:bold;font-size:16.8243px;line-height:17.3421px;font-family:Arial;-inkscape-font-specification:'Arial Bold';text-align:center;letter-spacing:0.00344133px;word-spacing:0px;text-anchor:middle;fill:#fff000;stroke:#fff000;stroke-width:0.903142;stroke-linecap:round;stroke-dasharray:none;stroke-opacity:1"
         d="m 147.51464,39.342619 7.32533,-9.559167 1.87793,1.439082 -0.97954,9.381733 4.89188,-6.383645 1.79316,1.374123 -7.32533,9.559167 -1.93661,-1.484053 0.92329,-9.186789 -4.77695,6.233672 z m 15.91687,16.392278 -1.58093,-2.120818 1.56482,-2.478001 -2.87711,-3.859625 -2.78734,0.837988 -1.54166,-2.068127 12.45911,-3.436843 1.53675,2.06154 z m 1.1443,-6.437231 2.59123,-4.001348 -4.55512,1.366791 z m -0.62991,7.708928 11.1968,-4.435076 1.88475,4.758256 q 0.71095,1.794847 0.72612,2.72545 0.0258,0.935215 -0.55194,1.729578 -0.57779,0.794364 -1.57068,1.187652 -1.26021,0.499173 -2.37853,0.08505 -1.11069,-0.417145 -1.90842,-1.806504 -0.13728,0.902631 -0.46144,1.57886 -0.32112,0.683866 -1.30648,2.010782 l -1.64284,2.232372 -1.07096,-2.703728 1.789,-2.599525 q 0.96116,-1.388016 1.17015,-1.84191 0.21663,-0.45692 0.19665,-0.864294 -0.0123,-0.410399 -0.32093,-1.18944 l -0.18152,-0.458259 -4.67424,1.851478 z m 7.35694,-0.298652 0.66254,1.672646 q 0.64439,1.626819 0.94221,1.977159 0.29781,0.35034 0.72463,0.446357 0.42681,0.09602 0.9309,-0.103652 0.56519,-0.223872 0.78787,-0.665516 0.23334,-0.437032 0.10717,-1.023246 -0.0707,-0.290082 -0.61527,-1.664859 l -0.69884,-1.764297 z m 2.7249,10.569099 q 1.82846,-0.207169 3.13116,0.199158 0.96047,0.304554 1.7665,0.924239 0.80695,0.627848 1.25321,1.428843 0.60014,1.064657 0.76569,2.525792 0.29966,2.644735 -1.16164,4.414208 -1.46036,1.777636 -4.38263,2.108736 -2.89778,0.328325 -4.717,-1.061192 -1.81105,-1.390441 -2.10978,-4.027014 -0.30243,-2.669223 1.14346,-4.428684 1.45406,-1.760385 4.31103,-2.084086 z m 0.36371,2.480394 q -2.03253,0.23029 -2.97917,1.288315 -0.93847,1.0571 -0.77477,2.501909 0.1637,1.444809 1.30488,2.249744 1.15026,0.812173 3.23177,0.576334 2.05702,-0.233065 2.96654,-1.253814 0.91045,-1.012587 0.7412,-2.506372 -0.16925,-1.493786 -1.30134,-2.291483 -1.12393,-0.798622 -3.18911,-0.564633 z m -5.57048,14.426583 9.93852,1.158906 0.4139,-3.54947 2.0236,0.235967 -1.10848,9.506054 -2.0236,-0.235968 0.41294,-3.541311 -9.93852,-1.158906 z m -4.42896,16.547922 0.87606,-2.495942 2.92946,-0.08619 1.59432,-4.542311 -2.25201,-1.843905 0.85429,-2.433934 9.81002,8.414563 -0.85157,2.426179 z m 5.97857,-2.646503 4.76633,-0.08573 -3.67805,-3.014826 z m -6.59983,3.829013 9.80136,6.99795 -2.11466,2.9618 -7.95554,-2.99508 5.43036,6.53186 -2.11943,2.96849 -9.80137,-6.99795 1.31271,-1.83859 7.7154,5.50862 -6.32631,-7.45418 1.36045,-1.90545 9.09972,3.56974 -7.7154,-5.50862 z m -17.19205,17.78205 2.09949,-1.60914 2.4987,1.53156 3.82082,-2.92844 -0.87517,-2.7759 2.04734,-1.56916 3.60307,12.41206 -2.04082,1.56416 z m 6.45195,1.05816 4.03562,2.53751 -1.42755,-4.53645 z"
         id="text9"
         aria-label="NAROTAMA" /></g></g><g
     id="layer2"
     style="display:inline"
     transform="translate(-44.19794,-106.36139)"><path
       class="fil6"
       d="m 88.719366,183.98265 -0.017,-5.77919 -11.505134,-5.14957 -3.8419,3.34461 -8.394888,-9.69204 3.828281,-3.82357 -3.102754,-9.57393 -5.928624,-0.34798 0.189495,-12.07407 7.022078,-0.22738 3.470776,-7.37506 -4.532054,-4.76777 8.915472,-8.65779 4.761583,4.53696 8.922325,-3.77731 0.104482,-5.9288 c 54.160656,-3.98624 54.202336,71.75141 0.107865,69.29289 z"
       id="path15-8"
       style="clip-rule:evenodd;display:inline;fill:#141993;fill-rule:evenodd;stroke-width:0.00885797;image-rendering:optimizeQuality;shape-rendering:geometricPrecision;text-rendering:geometricPrecision" /><path
       id="path17-2"
       style="clip-rule:evenodd;display:inline;fill:#fefefe;fill-rule:evenodd;stroke-width:0.00885797;image-rendering:optimizeQuality;shape-rendering:geometricPrecision;text-rendering:geometricPrecision"
       class="fil4"
       d="m 95.631295,153.80527 v -8.07076 c 1.539082,0.14936 4.295297,0.73347 4.235514,3.99671 -0.05421,2.95569 -2.789946,4.17705 -4.235514,4.07405 z m 0.02815,-37.27373 -0.02788,4.08915 c 5.951935,0.80352 8.733395,1.92613 10.125485,3.18844 l -2.18747,11.91348 c -3.756341,-1.31338 -6.19963,-2.19132 -7.925099,-1.83141 l 0.111622,6.10454 c 14.777827,2.56049 10.889527,18.77549 -0.08117,19.17609 l -0.219102,6.03684 c 2.593139,0.14798 5.371609,-0.40149 8.393289,-1.86242 l 2.72076,10.39368 c -2.49661,2.80075 -6.616515,3.4681 -10.760071,4.10414 l -0.04854,4.56097 c 45.203331,-6.92339 36.344381,-64.64579 -0.101804,-65.8735 z m 13.450865,8.8563 c 1.42327,0.5139 2.44636,1.49757 3.01274,3.01739 -2.10711,5.6615 -2.75872,8.16075 -3.56826,9.25577 l -2.2965,-1.56115 z m -0.26562,34.56172 c 0.80954,1.09501 1.46116,3.59426 3.56827,9.25576 -0.56638,1.51982 -1.58948,2.50348 -3.01275,3.01739 l -2.85199,-10.71252 z" /><path
       id="rect4-4"
       style="display:inline;fill:#fc8403;stroke-width:0.38404;stroke-linecap:round"
       d="m 72.147894,159.34544 h 19.312492 c 0.06789,0 0.122544,0.0547 0.122544,0.12254 v 5.80366 c 0,0.0679 -0.05465,0.12254 -0.122544,0.12254 H 72.147894 c -0.06789,0 -0.12254,-0.0547 -0.12254,-0.12254 v -5.80366 c 0,-0.0679 0.05465,-0.12254 0.12254,-0.12254 z" /><path
       id="rect3-5"
       style="display:inline;fill:#fefefe;stroke-width:0.38404;stroke-linecap:round"
       d="M 75.085851,160.00793 H 88.52243 c 0.06789,0 0.122544,0.0547 0.122544,0.12254 v 4.47869 c 0,0.0679 -0.05465,0.12254 -0.122544,0.12254 H 75.085851 c -0.06789,0 -0.12254,-0.0546 -0.12254,-0.12254 v -4.47869 c 0,-0.0679 0.05465,-0.12254 0.12254,-0.12254 z" /><path
       id="rect5-5"
       style="display:inline;fill:#d12620;stroke-width:0.38404;stroke-linecap:round"
       d="m 76.06517,161.31848 h 11.477942 c 0.06789,0 0.122543,0.0547 0.122543,0.12254 v 1.85758 c 0,0.0679 -0.05466,0.12254 -0.122543,0.12254 H 76.06517 c -0.06789,0 -0.12254,-0.0547 -0.12254,-0.12254 v -1.85758 c 0,-0.0679 0.05465,-0.12254 0.12254,-0.12254 z" /><path
       id="rect8-1"
       style="display:inline;fill:#fc8403;stroke-width:0.38404;stroke-linecap:round"
       d="M 72.040783,137.75237 H 91.484746 V 156.63 H 72.040783 Z" /><path
       id="rect7-7"
       style="display:inline;fill:#ffffff;stroke-width:0.38404;stroke-linecap:round"
       d="m 73.453292,141.5279 h 16.304312 c 0.06789,0 0.12254,0.0547 0.12254,0.12254 v 11.14442 c 0,0.0679 -0.05465,0.12254 -0.12254,0.12254 H 73.453292 c -0.06789,0 -0.12254,-0.0546 -0.12254,-0.12254 v -11.14442 c 0,-0.0679 0.05465,-0.12254 0.12254,-0.12254 z" /><path
       id="rect6-1"
       style="display:inline;fill:#d12620;stroke-width:0.38404;stroke-linecap:round"
       d="m 74.77473,142.56617 h 14.007531 c 0.06789,0 0.122539,0.0547 0.122539,0.12254 v 9.09934 c 0,0.0679 -0.05465,0.12255 -0.122539,0.12255 H 74.77473 c -0.06789,0 -0.122541,-0.0547 -0.122541,-0.12255 v -9.09934 c 0,-0.0679 0.05465,-0.12254 0.122541,-0.12254 z" /><path
       id="polygon25-1"
       style="clip-rule:evenodd;display:inline;fill:#fff000;fill-rule:evenodd;stroke-width:0.00885797;image-rendering:optimizeQuality;shape-rendering:geometricPrecision;text-rendering:geometricPrecision"
       class="fil10"
       d="m 83.485366,151.6333 9.319869,-14.59046 -8.875796,7.43626 -2.6574,-4.14237 -10.903377,14.10032 9.760926,-7.59247 z" /><path
       style="font-weight:bold;font-size:16.8243px;line-height:17.3421px;font-family:Arial;-inkscape-font-specification:'Arial Bold';text-align:center;letter-spacing:0.00344133px;word-spacing:0px;text-anchor:middle;display:inline;fill:#fff000;stroke:#fff000;stroke-width:0.8;stroke-linecap:round;stroke-dasharray:none;stroke-opacity:1"
       d="m 71.515167,180.96025 -7.398085,7.65521 -5.588762,-4.76239 1.251518,-1.29501 3.942718,3.35973 1.751114,-1.81198 -3.403305,-2.90008 1.251518,-1.29501 3.403305,2.90008 3.143932,-3.2532 z m -11.79772,-13.23166 1.350362,1.88351 -1.53756,2.06005 2.45749,3.42775 2.581785,-0.60354 1.316812,1.83671 -11.52671,2.433 -1.312619,-1.83087 z m -1.327432,5.47193 -2.541607,3.32381 4.219075,-0.98405 z m -2.235481,-4.9647 -0.921027,-1.84803 q 0.960981,-0.51454 1.243967,-1.19984 0.280477,-0.69193 -0.05837,-1.58913 -0.358919,-0.95037 -0.964284,-1.28746 -0.614952,-0.34138 -1.18823,-0.15048 -0.368031,0.12256 -0.545014,0.41343 -0.18657,0.28658 -0.186908,0.85531 0.0031,0.38801 0.14189,1.72591 0.179789,1.72078 -0.187924,2.56148 -0.517539,1.18238 -1.749025,1.59247 -0.792681,0.26397 -1.637324,0.0739 -0.85423,-0.19436 -1.513864,-0.86503 -0.662143,-0.6773 -1.08632,-1.80046 -0.692738,-1.83427 -0.185238,-3.04323 0.504989,-1.21561 1.917076,-1.73822 l 0.834943,1.93655 q -0.752069,0.3926 -0.940742,0.92678 -0.198261,0.52988 0.11548,1.36062 0.32378,0.85732 0.882112,1.21756 0.358601,0.23222 0.762018,0.0979 0.368031,-0.12256 0.519463,-0.50218 0.192087,-0.48295 0.0109,-2.03866 -0.18119,-1.55572 -0.05045,-2.36988 0.121154,-0.81844 0.647942,-1.4278 0.5172,-0.61366 1.500974,-0.94126 0.891765,-0.29696 1.845986,-0.091 0.95422,0.20596 1.657675,0.92937 0.696378,0.72576 1.175773,1.99513 0.697758,1.84756 0.165815,3.13948 -0.53902,1.29428 -2.2073,2.06679 z m 0.189536,-10.76191 -10.842406,1.79026 -0.384947,-2.05569 10.842406,-1.79026 z m -0.77873,-4.0846 -10.916629,0.19676 -0.04266,-2.08685 9.062154,-0.16333 -0.106066,-5.18891 1.854476,-0.0334 z m -0.01112,-8.82352 -10.759016,-2.18938 0.470766,-2.03988 4.777708,0.97223 -3.826634,-5.09333 0.632989,-2.74281 3.312671,4.65685 7.494058,-2.67422 -0.609132,2.63944 -5.690194,1.74978 1.416361,2.01985 3.251189,0.66159 z m -2.443578,-12.14198 q -1.491426,-0.73045 -2.270792,-1.64501 -0.572077,-0.67783 -0.865998,-1.50574 -0.290448,-0.83416 -0.219058,-1.61835 0.08959,-1.04567 0.711208,-2.1648 1.125162,-2.02569 3.137159,-2.58315 2.01547,-0.56371 4.399088,0.60371 2.363644,1.15763 3.031697,3.01974 0.661394,1.85885 -0.460296,3.87829 -1.135581,2.04445 -3.130789,2.60218 -2.001866,0.55447 -4.332219,-0.58687 z m 0.9926,-1.9395 q 1.657879,0.81197 2.916144,0.51364 1.251607,-0.30159 1.866279,-1.40822 0.614672,-1.10662 0.161505,-2.22725 -0.456353,-1.13015 -2.154181,-1.96169 -1.677855,-0.82176 -2.888938,-0.53213 -1.20761,0.28337 -1.843119,1.42751 -0.635509,1.14414 -0.185527,2.25526 0.443324,1.10786 2.127837,1.93288 z m 9.803193,-5.95149 -7.819445,-7.27656 2.341652,-2.21881 6.739912,3.63127 -3.943673,-6.28081 2.346937,-2.22382 7.819447,7.27657 -1.453624,1.37736 -6.155278,-5.72794 4.617083,7.18544 -1.50648,1.42745 -7.688189,-4.27545 6.155279,5.72794 z"
       id="text8-2"
       aria-label="FASILKOM" /><path
       style="font-weight:bold;font-size:16.8243px;line-height:17.3421px;font-family:Arial;-inkscape-font-specification:'Arial Bold';text-align:center;letter-spacing:0.00344133px;word-spacing:0px;text-anchor:middle;fill:#fff000;stroke:#fff000;stroke-width:0.8;stroke-linecap:round;stroke-dasharray:none;stroke-opacity:1"
       d="m 113.81678,115.11116 6.69613,-8.20523 1.71663,1.23525 -0.8954,8.05294 4.4717,-5.47949 1.63914,1.1795 -6.69614,8.20523 -1.77026,-1.27385 0.84398,-7.8856 -4.36664,5.35075 z m 14.54972,14.07053 -1.44514,-1.82043 1.43041,-2.12703 -2.62998,-3.31296 -2.54793,0.7193 -1.40924,-1.7752 11.38896,-2.95006 1.40475,1.76955 z m 1.04601,-5.52548 2.36866,-3.43461 -4.16386,1.1732 z m -0.5758,6.61705 10.23507,-3.8069 1.72286,4.08431 q 0.64989,1.54063 0.66376,2.33942 0.0236,0.80276 -0.50454,1.48461 -0.52816,0.68185 -1.43577,1.01944 -1.15196,0.42847 -2.17423,0.073 -1.01529,-0.35806 -1.7445,-1.55064 -0.12549,0.77479 -0.4218,1.35524 -0.29354,0.587 -1.19427,1.72598 l -1.50173,1.91619 -0.97897,-2.32078 1.63534,-2.23134 q 0.8786,-1.19142 1.06964,-1.58103 0.19802,-0.3922 0.17976,-0.74188 -0.0112,-0.35227 -0.29336,-1.02097 l -0.16593,-0.39335 -4.27276,1.58924 z m 6.72503,-0.25635 0.60563,1.43574 q 0.58904,1.3964 0.86128,1.69712 0.27223,0.30072 0.66239,0.38314 0.39015,0.0824 0.85094,-0.089 0.51665,-0.19216 0.7202,-0.57125 0.2133,-0.37513 0.098,-0.87832 -0.0646,-0.24899 -0.56243,-1.42905 l -0.63881,-1.51441 z m 2.49085,9.07212 q 1.67141,-0.17782 2.86221,0.17095 0.87798,0.26142 1.61477,0.79334 0.73764,0.53892 1.14557,1.22646 0.54859,0.91386 0.69992,2.16805 0.27393,2.27014 -1.06186,3.78899 -1.33492,1.52586 -4.00619,1.81006 -2.64888,0.28182 -4.31184,-0.91089 -1.6555,-1.1935 -1.92857,-3.45664 -0.27645,-2.29116 1.04525,-3.80141 1.32916,-1.51105 3.94074,-1.78891 z m 0.33247,2.12908 q -1.85795,0.19767 -2.72328,1.10584 -0.85786,0.90738 -0.70822,2.14755 0.14963,1.24017 1.1928,1.9311 1.05146,0.69714 2.95418,0.4947 1.88034,-0.20005 2.71173,-1.07623 0.83225,-0.86916 0.67754,-2.15137 -0.15471,-1.28221 -1.18956,-1.96693 -1.0274,-0.68551 -2.91519,-0.48466 z m -5.09202,12.38325 9.08487,0.99476 0.37835,-3.04674 1.84979,0.20255 -1.01327,8.15964 -1.84979,-0.20254 0.37748,-3.03973 -9.08488,-0.99476 z m -4.04854,14.20412 0.80081,-2.14243 2.67784,-0.074 1.45738,-3.89895 -2.05858,-1.58274 0.78092,-2.0892 8.9674,7.22275 -0.77842,2.08254 z m 5.46505,-2.27166 4.35694,-0.0736 -3.36213,-2.58781 z m -6.03295,3.28668 8.95949,6.00678 -1.93302,2.5423 -7.27222,-2.57087 4.96393,5.60671 -1.93738,2.54804 -8.9595,-6.00678 1.19995,-1.57818 7.05271,4.7284 -5.78293,-6.39839 1.2436,-1.63557 8.31812,3.06413 -7.05271,-4.72839 z m -15.71537,15.26345 1.91916,-1.38122 2.28408,1.31463 3.49263,-2.51366 -0.79999,-2.38273 1.87148,-1.34691 3.29359,10.65405 -1.86552,1.34262 z m 5.89777,0.90829 3.68899,2.1781 -1.30493,-3.89392 z"
       id="text9-6"
       aria-label="NAROTAMA" /></g></svg>
