<?xml version="1.0" encoding="UTF-8" standalone="no"?>
<!-- Created with Inkscape (http://www.inkscape.org/) -->

<svg
   width="172.92326mm"
   height="173.06407mm"
   viewBox="0 0 172.92326 173.06407"
   version="1.1"
   id="svg1"
   xml:space="preserve"
   xmlns="http://www.w3.org/2000/svg"
   xmlns:svg="http://www.w3.org/2000/svg"><defs
     id="defs1" /><g
     id="layer3"
     transform="matrix(2.0002037,0,0,2.0002037,-110.08367,-64.429971)"><path
       style="display:inline;fill:#fee502;fill-opacity:1"
       d="M 95.08356,118.65632 C 85.24691,117.92412 75.899424,113.8304 68.752229,107.12454 62.076417,100.86096 57.644359,92.959464 55.844756,84.113038 55.220897,81.04629 55.036229,79.075612 55.036229,75.484844 c 0,-2.97404 0.05927,-3.919602 0.390083,-6.222834 0.55748,-3.881399 1.717351,-7.878353 3.324861,-11.457575 3.405184,-7.581857 8.886857,-13.992442 15.885389,-18.577292 9.958782,-6.524157 22.303852,-8.622257 33.951328,-5.770181 9.43927,2.31136 17.83414,7.763388 23.86687,15.500282 4.91902,6.308581 7.97525,13.930464 8.87166,22.124934 0.21685,1.982388 0.21685,6.822944 0,8.805333 -1.44175,13.179605 -8.44122,24.645719 -19.44586,31.855039 -6.13712,4.02052 -13.15794,6.3771 -20.61633,6.91999 -1.362475,0.0992 -4.811382,0.0957 -6.18067,-0.006 z"
       id="path2" /><path
       id="path5"
       style="display:inline;fill:#ffffff;fill-opacity:1"
       d="m 77.642325,90.089843 c -0.577259,-1.167284 -0.802076,-1.964513 -0.864197,-3.06455 -0.07227,-1.279769 0.200331,-2.387921 0.845701,-3.437856 0.137394,-0.223524 0.235841,-0.417858 0.21877,-0.431854 -0.01707,-0.01399 -0.316788,-0.162033 -0.666038,-0.328973 -2.040942,-0.975558 -3.332273,-2.999441 -3.873425,-6.070759 -0.1985,-1.126595 -0.193913,-3.910047 0.0087,-5.292673 0.670068,-4.572016 2.494505,-8.651075 5.003526,-11.186836 1.39836,-1.413263 2.668365,-2.149866 4.152177,-2.408261 0.686272,-0.119509 1.936757,-0.06019 2.5195,0.119508 l 0.402167,0.124017 V 57.81999 c 0,-0.160389 0.0603,-0.583542 0.133997,-0.940338 0.835065,-4.042808 5.975474,-6.71014 12.931601,-6.71014 3.998696,0 7.386356,0.863529 9.917156,2.527925 0.74882,0.492468 1.86254,1.606816 2.2356,2.236858 0.51357,0.867335 0.70594,1.445363 0.90373,2.715507 0.0446,0.286619 0.0731,0.319397 0.23584,0.271601 0.10179,-0.02989 0.55037,-0.077 0.99684,-0.104678 2.57494,-0.159626 5.05091,1.432141 7.13519,4.58712 1.55532,2.354279 2.72324,5.514964 3.24239,8.774701 0.21842,1.371454 0.21974,4.787053 0.002,5.861963 -0.57472,2.84068 -1.83193,4.807147 -3.64037,5.694087 -0.26487,0.129904 -0.48158,0.264661 -0.48158,0.299459 0,0.0348 0.0988,0.207836 0.2196,0.384529 1.16292,1.701265 1.29222,4.006147 0.34576,6.163259 -1.68973,3.8511 -6.48557,7.746374 -11.61208,9.431549 -3.88697,1.277718 -7.00266,1.196618 -9.323571,-0.242694 -0.135915,-0.08429 -0.254878,-0.04622 -0.754041,0.241269 -0.757595,0.436335 -1.842453,0.746791 -2.989783,0.855591 -0.983267,0.09324 -0.979461,0.09325 -2.078758,-0.0042 0,0 -12.833579,-5.056278 -15.166402,-9.773515 z m 46.460055,12.112577 c -0.4643,-0.20969 -0.86276,-0.56127 -1.24619,-1.09958 -0.3114,-0.43718 -1.40974,-2.587991 -3.41085,-6.679233 l -0.44552,-0.910865 2.56219,2.139035 c 3.04021,2.53811 3.8352,3.300028 4.17491,4.001244 0.27983,0.577579 0.36992,1.375069 0.21006,1.859429 -0.21283,0.6449 -1.15996,0.99917 -1.8446,0.68997 z m -54.68122,-0.96548 c -0.677051,-0.31796 -0.948151,-1.02977 -0.669796,-1.758635 0.31492,-0.824605 0.979399,-1.328046 2.811069,-2.1298 4.288104,-1.876978 5.88938,-2.566154 5.909373,-2.543345 0.0356,0.04061 -3.879832,4.337005 -4.736718,5.19759 -0.56039,0.5628 -0.917492,0.84327 -1.332506,1.04655 -0.730702,0.3579 -1.469839,0.4279 -1.981422,0.18764 z m 57.05678,-2.536619 c -0.82189,-0.29358 -1.3754,-0.803417 -1.74525,-1.607549 -0.27876,-0.606102 -0.26194,-1.67449 0.0364,-2.310629 0.279,-0.594937 0.78397,-1.098659 1.40913,-1.405642 0.41732,-0.204929 0.58771,-0.238658 1.20567,-0.238658 0.61079,0 0.79021,0.03464 1.1859,0.228983 0.60859,0.298898 1.15452,0.84193 1.42961,1.422017 0.18415,0.388321 0.22083,0.585201 0.22083,1.185333 0,0.61066 -0.0347,0.790201 -0.22878,1.185334 -0.49498,1.007523 -1.38709,1.610423 -2.46593,1.666508 -0.44213,0.02298 -0.72704,-0.0112 -1.04758,-0.125697 z m -59.603491,-0.85307 c -1.100346,-0.408715 -1.720557,-1.372969 -1.720557,-2.674987 0,-2.85738 3.021998,-5.105703 6.503282,-4.838349 0.662316,0.05086 3.876245,0.79229 3.793425,0.87511 -0.0211,0.0211 -0.755813,0.22538 -1.6327,0.453961 -1.651169,0.430416 -2.854383,0.931049 -3.643068,1.515808 l -0.355394,0.263502 0.252967,0.398107 c 0.715685,1.126312 0.621267,2.39357 -0.248648,3.337316 -0.503884,0.546649 -1.013956,0.770474 -1.833034,0.804352 -0.513602,0.02124 -0.784057,-0.01142 -1.116273,-0.13482 z m 55.216001,-3.337404 c -0.80976,-0.38715 -1.29552,-1.071429 -1.37386,-1.935335 -0.12792,-1.410756 0.93102,-2.561865 2.35675,-2.561865 2.0469,0 3.09305,2.407671 1.7109,3.937547 -0.4508,0.498981 -0.88112,0.691303 -1.63368,0.730134 -0.5382,0.02777 -0.6998,0.0018 -1.06011,-0.170481 z m 8.04675,-1.330534 c -1.36068,-0.243138 -2.69303,-1.086465 -3.68135,-2.330159 -0.724,-0.911071 -1.12321,-1.762298 -1.56718,-3.341644 -0.21599,-0.76835 -0.42997,-1.51103 -0.47551,-1.650401 -0.0629,-0.192485 0.24861,0.07404 1.2958,1.108682 0.75823,0.749146 1.55005,1.477279 1.7596,1.618075 0.39718,0.266862 1.55609,0.871126 1.67005,0.870776 0.0361,-1.1e-4 0.17521,-0.209946 0.30916,-0.4663 0.45182,-0.864697 1.3018,-1.39227 2.26354,-1.404959 0.8801,-0.01161 1.40162,0.181295 1.96034,0.725127 0.72101,0.70179 1.0141,1.885689 0.70055,2.829719 -0.27001,0.812919 -1.18744,1.604335 -2.22073,1.915712 -0.53323,0.160683 -1.48509,0.219929 -2.01427,0.125372 z M 64.688229,91.478848 c -0.936807,-0.120227 -1.743867,-0.736338 -2.180253,-1.664409 -0.562683,-1.196667 -0.190312,-2.673115 0.87059,-3.451889 0.601559,-0.441585 1.057972,-0.571245 1.883073,-0.534953 0.834344,0.0367 1.363238,0.261747 1.890766,0.804533 0.596029,0.613268 0.753157,1.034355 0.753157,2.01838 0,1.00135 -0.149771,1.388578 -0.781352,2.020159 -0.662297,0.662297 -1.474092,0.931624 -2.435981,0.808179 z m 5.333999,-2.4448 c -0.497394,-0.07628 -1.222122,-0.504836 -1.498522,-0.886136 -0.904004,-1.247094 -0.465964,-2.944252 0.924182,-3.580682 0.406161,-0.185947 0.55044,-0.208175 1.132531,-0.174478 0.585601,0.0339 0.719402,0.07394 1.095541,0.327854 0.767605,0.518172 1.154042,1.313423 1.073594,2.209354 -0.121722,1.355581 -1.36311,2.313292 -2.727326,2.104088 z m 63.583722,-1.809301 c -0.5905,-0.219605 -0.75676,-0.33003 -3.03506,-2.015819 -0.93793,-0.69401 -2.23168,-1.645718 -2.875,-2.114907 -0.64331,-0.46919 -1.157,-0.865727 -1.14154,-0.881195 0.0576,-0.05755 6.78909,1.412998 7.40285,1.617194 0.85547,0.28461 1.68913,0.909882 1.98416,1.488175 0.22099,0.433185 0.21672,1.109066 -0.009,1.474814 -0.37879,0.612899 -1.35283,0.793687 -2.32608,0.431738 z M 62.037315,85.265612 c -1.354847,-0.4229 -1.701781,-1.659006 -0.705078,-2.512147 0.72643,-0.621796 1.431771,-0.698013 4.578847,-0.49477 1.376363,0.08889 3.167837,0.203118 3.981054,0.253846 0.813217,0.05073 1.487299,0.100956 1.497961,0.111618 0.04474,0.04474 -6.511507,2.381594 -7.198064,2.565611 -0.834957,0.223793 -1.595022,0.250546 -2.15472,0.07584 z" /><g
       id="g9"
       style="display:inline"><path
         style="display:inline;fill:#d2ab66;fill-opacity:1"
         d="m 90.596227,85.008238 c -0.4191,-0.24738 -1.77165,-1.034415 -3.005666,-1.748968 l -2.243667,-1.299188 -0.02156,-8.860163 -0.02156,-8.860164 1.164555,-0.63799 c 0.640506,-0.350894 1.231233,-0.663278 1.312723,-0.694178 0.140466,-0.05328 0.148166,0.387766 0.148166,8.530988 0,5.827404 0.02961,8.747364 0.09214,9.085612 0.229694,1.242529 1.119833,2.257601 2.385159,2.71992 0.660538,0.241344 1.363618,0.375244 2.389366,0.455054 1.116366,0.08686 9.854627,0.11431 10.070077,0.03163 0.12092,-0.04641 0.13392,-0.908023 0.13392,-8.88516 v -8.833769 l 1.0795,-0.02601 c 0.59373,-0.0143 1.14617,-0.01204 1.22767,0.005 0.14017,0.02935 0.14817,0.562492 0.14817,9.757833 v 9.726791 l -7.048504,-0.0087 -7.0485,-0.0087 z m 1.354667,-2.11354 c -1.600923,-0.256981 -2.553805,-0.84466 -3.022655,-1.864187 l -0.194678,-0.423334 -0.02264,-9.108341 -0.02264,-9.108342 1.138736,-0.617736 c 0.626304,-0.339755 1.169894,-0.612982 1.207974,-0.607182 0.03808,0.0058 0.08829,4.19204 0.111572,9.302745 l 0.04233,9.29219 0.228671,0.433471 c 0.248483,0.471028 0.631547,0.839242 1.059776,1.018692 0.213757,0.08957 1.029854,0.11417 3.788385,0.11417 h 3.515938 l 0.02161,-7.677047 0.02161,-7.677047 1.185337,0.0043 1.18533,0.0043 0.0216,8.519393 0.0216,8.519394 -4.805235,-0.0084 c -3.468019,-0.006 -4.993729,-0.03863 -5.482571,-0.117102 z"
         id="path6" /><path
         style="display:inline;fill:#4faadf;fill-opacity:1"
         d="m 106.63955,76.014016 c -0.001,-9.468925 -2.7e-4,-9.44736 -0.36458,-10.151502 -0.20198,-0.390391 -0.77538,-0.845058 -1.20086,-0.952194 -0.23967,-0.06035 -1.5579,-0.09347 -3.72038,-0.09347 h -3.34917 v 7.704666 7.704666 h -1.27 -1.27 v -8.513151 -8.513152 l 5.2705,0.03032 c 4.74802,0.02731 5.32086,0.04523 5.7785,0.180813 1.19604,0.354333 2.0857,1.076813 2.38587,1.937529 0.14513,0.416735 0.15413,0.956194 0.15413,9.444509 v 9.002528 l -1.143,0.625383 c -0.62865,0.343961 -1.1716,0.626705 -1.2065,0.628305 -0.0349,0.0016 -0.0639,-4.064254 -0.0645,-9.035245 z m 3.17676,7.246876 c -0.0233,-0.06254 -0.052,-4.09516 -0.0639,-8.961376 l -0.0216,-8.847666 -0.19768,-0.489761 c -0.42539,-1.053929 -1.5254,-1.8922 -2.98685,-2.276135 -0.6903,-0.181351 -0.86443,-0.187441 -6.23463,-0.218171 l -5.524503,-0.03161 v 8.895005 8.895004 H 93.55956 92.331894 v -9.778999 -9.779 h 6.952427 6.952429 l 1.45074,0.833972 c 0.7979,0.458684 2.17464,1.253964 3.0594,1.767288 l 1.60867,0.933317 0.0214,8.879545 0.0214,8.879544 -0.82572,0.457948 c -0.45414,0.251871 -1.02558,0.56974 -1.26985,0.706376 -0.33696,0.188479 -0.45435,0.220989 -0.48645,0.134719 z"
         id="path7" /></g><path
       style="display:inline;fill:#2f55a6;fill-opacity:1"
       d="M 95.08356,118.65632 C 85.24691,117.92412 75.899424,113.8304 68.752229,107.12454 62.076417,100.86096 57.644359,92.959464 55.844756,84.113038 55.220897,81.04629 55.036229,79.075612 55.036229,75.484844 c 0,-2.97404 0.05927,-3.919602 0.390083,-6.222834 0.55748,-3.881399 1.717351,-7.878353 3.324861,-11.457575 3.405184,-7.581857 8.886857,-13.992442 15.885389,-18.577292 9.958782,-6.524157 22.303852,-8.622257 33.951328,-5.770181 9.43927,2.31136 17.83414,7.763388 23.86687,15.500282 4.91902,6.308581 7.97525,13.930464 8.87166,22.124934 0.21685,1.982388 0.21685,6.822944 0,8.805333 -1.44175,13.179605 -8.44122,24.645719 -19.44586,31.855039 -6.13712,4.02052 -13.15794,6.3771 -20.61633,6.91999 -1.362475,0.0992 -4.811382,0.0957 -6.18067,-0.006 z m 7.71873,-1.59079 c 7.28833,-0.8638 13.58296,-3.2321 19.42092,-7.30695 9.2756,-6.47429 15.59836,-16.577132 17.3433,-27.712069 0.39817,-2.540875 0.46806,-3.520574 0.46806,-6.561667 0,-3.032101 -0.0655,-3.953881 -0.46632,-6.561666 -1.69822,-11.049207 -8.0798,-21.245017 -17.34504,-27.712073 -5.92816,-4.137808 -12.21028,-6.474337 -19.77365,-7.354479 -1.79975,-0.209435 -6.582249,-0.209435 -8.382,0 -7.562272,0.880014 -13.846346,3.21727 -19.773651,7.354479 -9.274586,6.47358 -15.598547,16.578355 -17.343295,27.712073 -0.398176,2.540874 -0.468061,3.520574 -0.468061,6.561666 0,3.041093 0.06988,4.020792 0.468061,6.561667 1.325901,8.460938 5.273747,16.346597 11.286247,22.543809 6.918581,7.13113 15.922727,11.49038 25.830699,12.50562 1.884876,0.19314 1.989102,0.19683 4.741333,0.16824 1.881027,-0.0195 2.917067,-0.0711 3.993397,-0.19865 z m -4.16273,-3.6083 c -0.04657,-0.0163 -0.494241,-0.055 -0.994833,-0.0861 l -0.910167,-0.0566 v -0.791 -0.791 l -0.390361,-0.0585 c -0.267339,-0.0401 -0.41005,-0.0267 -0.452838,0.0426 -0.03436,0.0556 -0.110608,0.4246 -0.169434,0.82 -0.105806,0.71117 -0.109357,0.71845 -0.330328,0.67634 -0.122854,-0.0234 -0.623422,-0.0679 -1.112372,-0.0989 -0.48895,-0.031 -0.913821,-0.071 -0.944157,-0.0889 -0.03034,-0.0179 0.01328,-0.347 0.09693,-0.73127 0.08365,-0.38426 0.231646,-1.07965 0.328884,-1.54532 0.718499,-3.44086 1.3486,-6.31948 1.392986,-6.36387 0.05559,-0.0556 3.159297,0.16669 3.222006,0.23075 0.01999,0.0204 0.135604,1.44682 0.256923,3.16979 0.12132,1.72296 0.258196,3.60146 0.30417,4.17444 0.116564,1.45274 0.112811,1.54187 -0.06458,1.53387 -0.08149,-0.004 -0.186266,-0.02 -0.232833,-0.0363 z m -1.850605,-3.77947 c -0.02992,-0.28624 -0.05439,-1.11174 -0.05439,-1.83445 0,-0.72271 -0.02116,-1.29286 -0.04703,-1.26699 -0.04796,0.048 -0.714787,3.24331 -0.714906,3.42573 -6.2e-5,0.0952 0.219002,0.15531 0.668162,0.18344 0.198475,0.0124 0.201464,0.002 0.148167,-0.50773 z m 2.879156,-0.21857 c -0.129908,-2.17801 -0.257129,-4.15436 -0.282714,-4.3919 -0.04643,-0.43107 -0.04601,-0.43198 0.224844,-0.48615 0.577599,-0.11552 3.341759,-0.16345 3.703299,-0.0642 0.69656,0.19119 1.11625,0.73129 1.28731,1.65666 0.21425,1.15896 0.0591,1.7067 -0.57549,2.03215 -0.33324,0.17089 -0.36565,0.20865 -0.22113,0.25761 0.51422,0.17423 0.65748,0.25544 0.84615,0.47967 0.27938,0.33202 0.36399,0.69532 0.43033,1.84783 0.0647,1.12457 -0.0272,1.60012 -0.37713,1.95 -0.29243,0.29244 -0.7285,0.38551 -2.33869,0.49917 -0.6985,0.0493 -1.53788,0.1098 -1.86529,0.13442 l -0.595293,0.0448 z m 2.795379,2.25769 c 0.13014,-0.0495 0.26539,-0.13521 0.30055,-0.1905 0.16155,-0.25407 -0.007,-2.06204 -0.2041,-2.18694 -0.0607,-0.0385 -0.23454,-0.0706 -0.38629,-0.0713 l -0.2759,-0.001 0.0418,0.4445 c 0.023,0.24448 0.065,0.81598 0.0933,1.27 0.0283,0.45403 0.0836,0.8255 0.12278,0.8255 0.0392,0 0.17773,-0.0405 0.30787,-0.09 z m -0.0119,-3.94586 c 0.11475,-0.11475 0.13568,-0.27454 0.11187,-0.85415 -0.0258,-0.62817 -0.0531,-0.73226 -0.22915,-0.87485 -0.10993,-0.089 -0.2909,-0.16184 -0.40216,-0.16184 -0.23138,0 -0.2427,0.10275 -0.1469,1.3335 0.0541,0.69436 0.0558,0.6985 0.28978,0.6985 0.12947,0 0.29892,-0.0635 0.37656,-0.14116 z m 3.38729,4.86132 c -0.14546,-1.04624 -0.88818,-8.39256 -0.85214,-8.4286 0.0958,-0.0958 3.12394,-0.78123 3.17754,-0.71923 0.032,0.037 0.46954,1.09603 0.97227,2.35333 0.50272,1.2573 1.23712,3.07844 1.63199,4.04697 0.39487,0.96853 0.70393,1.77361 0.6868,1.78907 -0.0622,0.0561 -2.14276,0.54324 -2.19155,0.51309 -0.0276,-0.017 -0.14075,-0.32863 -0.25146,-0.6924 -0.1107,-0.36377 -0.22292,-0.68762 -0.24937,-0.71967 -0.0577,-0.0699 -0.85316,0.0899 -0.85074,0.17097 9.3e-4,0.0311 0.055,0.38049 0.12005,0.77631 0.0651,0.39581 0.0929,0.74165 0.0618,0.76853 -0.0592,0.0511 -1.9585,0.50147 -2.11505,0.50147 -0.0496,0 -0.11264,-0.16193 -0.14015,-0.35984 z m 2.2672,-3.32959 c 0.17467,-0.0417 0.22384,-0.0934 0.18503,-0.19452 -0.0291,-0.0757 -0.27975,-0.80447 -0.55709,-1.61939 -0.62819,-1.8459 -0.58297,-1.72407 -0.62449,-1.68255 -0.0464,0.0464 0.36202,3.4514 0.4265,3.55574 0.0275,0.0446 0.11355,0.0622 0.19112,0.0393 0.0776,-0.023 0.24809,-0.0673 0.37893,-0.0986 z m -16.705549,3.3382 c -0.34925,-0.0911 -0.774072,-0.20219 -0.944048,-0.24686 l -0.309048,-0.0812 0.417615,-1.62885 c 0.472239,-1.84189 0.490192,-2.16288 0.130565,-2.33444 -0.131588,-0.0628 -0.251992,-0.10114 -0.267566,-0.0853 -0.01557,0.0159 -0.249044,0.89045 -0.518822,1.9435 l -0.490506,1.91464 -0.469595,-0.11223 c -0.708477,-0.16931 -1.614541,-0.4311 -1.6643,-0.48086 -0.02426,-0.0243 0.107468,-0.62898 0.29274,-1.34382 0.185272,-0.71483 0.669262,-2.5951 1.075535,-4.17836 0.406272,-1.58327 0.762021,-2.90481 0.790553,-2.93676 0.07652,-0.0857 3.104272,0.75568 3.571536,0.99246 0.930025,0.47128 1.136147,1.35083 0.670143,2.85957 -0.246276,0.79735 -0.520068,1.08425 -1.086661,1.1387 l -0.442803,0.0425 0.307478,0.20894 c 0.328634,0.22331 0.547325,0.63172 0.543499,1.01499 -0.0035,0.35393 -0.797362,3.43847 -0.890493,3.46016 -0.04445,0.0104 -0.366572,-0.0557 -0.715822,-0.14683 z m 0.0663,-5.76594 c 0.146741,-0.17844 0.36959,-1.05992 0.341366,-1.35026 -0.01885,-0.19392 -0.09348,-0.31162 -0.254695,-0.40168 -0.125418,-0.0701 -0.252442,-0.10298 -0.282275,-0.0731 -0.06753,0.0675 -0.459346,1.58058 -0.461662,1.78275 -0.0013,0.1122 0.06772,0.14816 0.284269,0.14816 0.157282,0 0.32513,-0.0476 0.372997,-0.10583 z m 21.538069,3.51367 c -0.13857,-0.3609 -0.39175,-1.03076 -0.56262,-1.48858 -0.28298,-0.75822 -0.45092,-1.02236 -1.88401,-2.96334 -0.86533,-1.172 -1.65012,-2.21649 -1.74398,-2.32108 -0.0939,-0.10459 -0.15202,-0.2088 -0.12925,-0.23157 0.0372,-0.0372 1.83845,-0.72127 1.89913,-0.72127 0.0368,0 1.16291,1.91468 1.43373,2.43761 0.12758,0.24637 0.24828,0.43163 0.26821,0.4117 0.0199,-0.0199 -0.0606,-0.54187 -0.17902,-1.15987 -0.1184,-0.618 -0.23924,-1.35765 -0.26854,-1.64368 l -0.0533,-0.52004 0.92013,-0.34416 c 0.50607,-0.18929 0.93592,-0.33031 0.95521,-0.31339 0.0324,0.0285 0.1029,0.93275 0.34822,4.46868 l 0.0935,1.34717 0.54478,1.45328 c 0.29963,0.79931 0.54478,1.47562 0.54478,1.50292 0,0.0273 -0.27622,0.15062 -0.61383,0.27403 -0.33761,0.12341 -0.73895,0.27914 -0.89187,0.34606 -0.15292,0.0669 -0.31208,0.12169 -0.35368,0.12169 -0.0416,0 -0.18902,-0.29527 -0.32758,-0.65616 z m -29.563032,-0.0516 c -0.949454,-0.25848 -1.725688,-0.8257 -2.06686,-1.51035 -0.408478,-0.8197 -0.37749,-0.93958 1.358043,-5.25359 0.585449,-1.45525 1.07908,-2.66987 1.096957,-2.69915 0.03234,-0.053 1.878317,0.65714 2.008422,0.77261 0.03753,0.0333 -0.52445,1.54724 -1.248834,3.3643 -0.724383,1.81706 -1.317061,3.37703 -1.317061,3.4666 0,0.32443 0.309164,0.46813 0.530639,0.24666 0.06567,-0.0657 0.720782,-1.62336 1.455802,-3.46152 l 1.3364,-3.34212 0.68808,0.27442 c 1.303623,0.51992 1.417203,0.57515 1.376832,0.66956 -0.02228,0.0521 -0.559788,1.38877 -1.194471,2.97039 -1.399003,3.48628 -1.573045,3.8587 -1.930761,4.13155 -0.581105,0.44323 -1.335712,0.57685 -2.093188,0.37064 z m 33.959932,-1.34344 c -0.16505,-0.38187 -0.53339,-1.20811 -1.40683,-3.15575 -1.31782,-2.93852 -1.99855,-4.47779 -2.01402,-4.5541 -0.0153,-0.0756 2.60814,-1.753564 2.74163,-1.753564 0.0319,0 0.33696,0.333375 0.67789,0.740834 0.34094,0.40746 1.6245,1.93508 2.85237,3.39471 1.22787,1.45963 2.22024,2.66288 2.20526,2.67388 -0.19661,0.14445 -1.87551,1.14924 -1.92026,1.14924 -0.0335,0 -0.24988,-0.26626 -0.48091,-0.59168 -0.23104,-0.32543 -0.45817,-0.59193 -0.50473,-0.59224 -0.0466,-3e-4 -0.22403,0.085 -0.39436,0.18952 l -0.3097,0.19007 0.3402,0.70609 c 0.18711,0.38835 0.30743,0.73689 0.26736,0.77452 -0.0401,0.0376 -0.4834,0.32084 -0.98519,0.62933 l -0.91235,0.56089 z m 0.96499,-3.80192 c 0.1811,-0.10686 0.28828,-0.22655 0.26265,-0.29333 -0.0482,-0.12563 -2.07945,-2.82816 -2.12566,-2.82816 -0.0161,0 0.11978,0.34361 0.30194,0.76359 0.49187,1.13408 1.16225,2.53841 1.21175,2.53841 0.0239,0 0.18105,-0.0812 0.34932,-0.18051 z m -40.859412,2.05246 c -1.253836,-0.49056 -2.167084,-1.62864 -2.089002,-2.60329 0.03398,-0.42414 0.490658,-1.36381 0.911353,-1.87521 l 0.159218,-0.19355 0.843655,0.61001 0.843656,0.61001 -0.457528,0.66807 c -0.493756,0.72096 -0.527872,0.82957 -0.32448,1.03296 0.298942,0.29894 0.708709,0.0705 1.128003,-0.62895 0.231081,-0.38547 0.224393,-0.6009 -0.04225,-1.36101 -0.121293,-0.34576 -0.314168,-0.89536 -0.42861,-1.22133 -0.368653,-1.05003 -0.27254,-1.63409 0.431204,-2.620294 0.445985,-0.624992 0.821015,-0.928716 1.309005,-1.060118 1.256679,-0.338388 3.396267,1.262091 3.396267,2.540512 0,0.32722 -0.367662,1.14016 -0.703216,1.55489 l -0.198755,0.24565 -0.819014,-0.57657 c -0.450458,-0.31711 -0.819014,-0.59961 -0.819014,-0.62778 0,-0.0282 0.135747,-0.25279 0.301661,-0.49916 0.165913,-0.24636 0.289738,-0.508 0.275166,-0.58142 -0.04195,-0.21134 -0.337891,-0.35985 -0.551679,-0.27685 -0.263526,0.1023 -0.651766,0.72343 -0.651248,1.0419 2.38e-4,0.14662 0.184155,0.71997 0.408703,1.27412 0.650182,1.60454 0.625187,2.2611 -0.128704,3.38068 -0.429542,0.6379 -0.806804,1.04806 -1.110195,1.207 -0.317531,0.16635 -1.210667,0.145 -1.684195,-0.0403 z m 46.595002,-5.04176 c -0.4643,-0.20969 -0.86276,-0.56127 -1.24619,-1.09958 -0.3114,-0.43718 -1.40974,-2.587991 -3.41085,-6.679233 l -0.44552,-0.910865 2.56219,2.139035 c 3.04021,2.53811 3.8352,3.300028 4.17491,4.001244 0.27983,0.577579 0.36992,1.375069 0.21006,1.859429 -0.21283,0.6449 -1.15996,0.99917 -1.8446,0.68997 z m 1.04166,-0.76335 c 0.43005,-0.43004 0.22331,-1.27615 -0.53342,-2.183053 -0.39496,-0.473351 -3.3115,-2.982609 -3.38328,-2.910827 -0.0202,0.0202 0.41831,0.964164 0.97445,2.09771 0.73896,1.506178 1.11592,2.17742 1.40034,2.49349 0.63575,0.70652 1.16541,0.87919 1.54191,0.50268 z m -55.72288,-0.20213 c -0.677051,-0.31796 -0.948151,-1.02977 -0.669796,-1.758635 0.31492,-0.824605 0.979399,-1.328046 2.811069,-2.1298 4.288104,-1.876978 5.88938,-2.566154 5.909373,-2.543345 0.0356,0.04061 -3.879832,4.337005 -4.736718,5.19759 -0.56039,0.5628 -0.917492,0.84327 -1.332506,1.04655 -0.730702,0.3579 -1.469839,0.4279 -1.981422,0.18764 z m 1.739362,-0.83986 c 0.253542,-0.12752 0.710742,-0.48033 1.015999,-0.784023 0.797281,-0.793192 2.655918,-2.876831 2.566178,-2.876831 -0.122148,0 -3.925123,1.682636 -4.302033,1.903446 -0.43947,0.25746 -1.03073,0.897496 -1.105946,1.197183 -0.07097,0.282755 0.100359,0.620055 0.393708,0.775125 0.290797,0.15372 0.872825,0.0664 1.432094,-0.2149 z M 92.809019,99.863379 C 87.026233,99.350855 79.975148,94.80708 77.642325,90.089843 c -0.577259,-1.167284 -0.802076,-1.964513 -0.864197,-3.06455 -0.07227,-1.279769 0.200331,-2.387921 0.845701,-3.437856 0.137394,-0.223524 0.235841,-0.417858 0.21877,-0.431854 -0.01707,-0.01399 -0.316788,-0.162033 -0.666038,-0.328973 -2.040942,-0.975558 -3.332273,-2.999441 -3.873425,-6.070759 -0.1985,-1.126595 -0.193913,-3.910047 0.0087,-5.292673 0.670068,-4.572016 2.494505,-8.651075 5.003526,-11.186836 1.39836,-1.413263 2.668365,-2.149866 4.152177,-2.408261 0.686272,-0.119509 1.936757,-0.06019 2.5195,0.119508 l 0.402167,0.124017 V 57.81999 c 0,-0.160389 0.0603,-0.583542 0.133997,-0.940338 0.835065,-4.042808 5.975474,-6.71014 12.931601,-6.71014 3.998696,0 7.386356,0.863529 9.917156,2.527925 0.74882,0.492468 1.86254,1.606816 2.2356,2.236858 0.51357,0.867335 0.70594,1.445363 0.90373,2.715507 0.0446,0.286619 0.0731,0.319397 0.23584,0.271601 0.10179,-0.02989 0.55037,-0.077 0.99684,-0.104678 2.57494,-0.159626 5.05091,1.432141 7.13519,4.58712 1.55532,2.354279 2.72324,5.514964 3.24239,8.774701 0.21842,1.371454 0.21974,4.787053 0.002,5.861963 -0.57472,2.84068 -1.83193,4.807147 -3.64037,5.694087 -0.26487,0.129904 -0.48158,0.264661 -0.48158,0.299459 0,0.0348 0.0988,0.207836 0.2196,0.384529 1.16292,1.701265 1.29222,4.006147 0.34576,6.163259 -1.68973,3.8511 -6.48557,7.746374 -11.61208,9.431549 -3.88697,1.277718 -7.00266,1.196618 -9.323571,-0.242694 -0.135915,-0.08429 -0.254878,-0.04622 -0.754041,0.241269 -0.757595,0.436335 -1.842453,0.746791 -2.989783,0.855591 -0.983267,0.09324 -0.979461,0.09325 -2.078758,-0.0042 z m 1.379778,-7.271765 c 0.510636,-0.363605 0.731735,-1.1895 0.502035,-1.875303 -0.203574,-0.607799 -0.709678,-0.94696 -1.40377,-0.940723 -0.532144,0.0048 -0.913409,0.199479 -1.187714,0.60652 -0.250917,0.372336 -0.270562,1.335984 -0.03636,1.78339 0.343234,0.655685 1.482652,0.884081 2.125805,0.426116 z m -1.382598,-0.538102 c -0.403795,-0.403795 -0.330183,-1.263717 0.137914,-1.611075 0.340961,-0.253015 0.8133,-0.12257 1.022594,0.282406 0.201566,0.390023 0.14076,1.044547 -0.123136,1.325451 -0.255239,0.271689 -0.767313,0.273278 -1.037372,0.0032 z m -5.875845,0.174165 0.02521,-0.529167 0.578533,-0.04233 c 0.526534,-0.03853 0.601597,-0.06816 0.835144,-0.32963 0.225719,-0.25271 0.25147,-0.332901 0.21391,-0.666132 -0.02901,-0.257376 -0.114092,-0.45029 -0.265375,-0.601704 C 88.110332,89.85109 88.0344,89.833868 87.20783,89.80697 L 86.320561,89.7781 v 1.489373 1.489373 h 0.292293 0.292293 z m -0.01713,-1.4605 v -0.381 h 0.412967 c 0.469873,0 0.649304,0.142785 0.571081,0.45445 -0.05416,0.215774 -0.259447,0.304505 -0.708881,0.306394 -0.26985,0.0011 -0.275167,-0.0062 -0.275167,-0.379844 z m 2.794,1.397 c 0,-0.536223 0.01613,-0.592667 0.169334,-0.592667 0.205201,0 0.372907,0.16306 0.762,0.740891 0.286286,0.425156 0.309849,0.44015 0.695002,0.442259 l 0.39867,0.0022 -0.265599,-0.427258 c -0.146079,-0.234993 -0.353356,-0.521951 -0.460616,-0.637686 l -0.195017,-0.210428 0.201569,-0.07664 c 0.640656,-0.243578 0.60937,-1.289223 -0.0454,-1.517479 -0.148064,-0.05161 -0.644522,-0.09385 -1.10324,-0.09385 h -0.834032 v 1.481667 1.481666 h 0.338667 0.338666 z m 0,-1.443374 v -0.342706 l 0.529167,0.02521 c 0.488462,0.02327 0.531413,0.04112 0.558374,0.23213 0.04018,0.284633 -0.187815,0.428077 -0.68039,0.428077 h -0.407151 z m 7.281333,1.485707 v -0.550333 h 0.556846 c 0.502573,0 0.580968,-0.02412 0.804334,-0.247488 0.202462,-0.202462 0.247487,-0.318999 0.247487,-0.640566 0,-0.770346 -0.318842,-0.974613 -1.521281,-0.974613 h -0.764719 v 1.481667 1.481666 h 0.338667 0.338666 z m 0,-1.439333 v -0.381 h 0.331742 c 0.48052,0 0.599592,0.06846 0.599592,0.344746 0,0.286904 -0.196635,0.417254 -0.629434,0.417254 -0.301363,0 -0.3019,-6.78e-4 -0.3019,-0.381 z m 2.25548,1.7145 c 0.07829,-0.273935 0.08134,-0.275278 0.681843,-0.299887 l 0.6032,-0.02472 0.099,0.299886 c 0.0931,0.282091 0.12076,0.299886 0.46616,0.299886 h 0.36719 l -0.59478,-1.481666 -0.59479,-1.481667 h -0.331402 c -0.265136,0 -0.346301,0.03809 -0.405946,0.1905 -0.041,0.104775 -0.303207,0.771525 -0.582676,1.481667 l -0.508124,1.291166 h 0.360856 c 0.334544,0 0.366591,-0.02006 0.439499,-0.275166 z m 0.369256,-0.973667 c 8.2e-5,-0.07605 0.328921,-0.928736 0.33468,-0.867833 0.0022,0.02328 0.08002,0.242358 0.172947,0.486833 l 0.16895,0.4445 h -0.338325 c -0.186077,0 -0.33829,-0.02858 -0.338252,-0.0635 z m 3.132597,0.0635 v -1.185333 h 0.42334 0.42333 V 90.089843 89.79351 h -1.18533 -1.18534 v 0.296333 0.296334 h 0.42334 0.42333 v 1.185333 1.185333 h 0.33867 0.33866 z m 1.86267,0.592667 c 0,-0.45518 0.0279,-0.592667 0.12008,-0.592667 0.25567,0 0.38933,0.117362 0.73114,0.64199 0.34629,0.53151 0.36208,0.543343 0.72506,0.543343 0.20408,0 0.37105,-0.01981 0.37105,-0.04402 0,-0.08952 -0.45066,-0.767719 -0.65745,-0.98939 l -0.21369,-0.229072 0.23026,-0.104911 c 0.40196,-0.183149 0.57169,-0.690857 0.37515,-1.122213 -0.16006,-0.351295 -0.54874,-0.473731 -1.5039,-0.473731 h -0.85503 v 1.481667 1.481666 h 0.33866 0.33867 z m 0,-1.439334 v -0.338666 h 0.44873 c 0.46773,0 0.65194,0.09963 0.65194,0.352621 0,0.20737 -0.25806,0.324712 -0.7141,0.324712 h -0.38657 z m 2.87867,0.550334 V 89.79351 h -0.29634 -0.29633 v 1.481667 1.481666 h 0.29633 0.29634 z m 1.02752,1.185333 0.10716,-0.296333 h 0.57452 0.57452 l 0.12382,0.296333 c 0.11261,0.269524 0.15485,0.296333 0.4668,0.296333 0.18865,0 0.34299,-0.01301 0.34299,-0.02891 0,-0.0159 -0.26119,-0.673126 -0.58043,-1.4605 l -0.58042,-1.431589 -0.33672,-0.02534 -0.33672,-0.02534 -0.51899,1.337674 c -0.28545,0.735721 -0.54356,1.40435 -0.57358,1.485842 -0.0463,0.125677 -0.003,0.148166 0.28765,0.148166 0.31429,0 0.351,-0.02421 0.4494,-0.296333 z m 0.47809,-1.312333 c 0.0744,-0.232834 0.16262,-0.423334 0.19592,-0.423334 0.0475,0 0.33047,0.701565 0.33047,0.819416 0,0.01499 -0.1489,0.02725 -0.33089,0.02725 h -0.33088 z m 0.89459,-6.199871 3.27246,-1.797203 -0.002,-10.034963 -0.002,-10.034962 -3.29908,-1.883833 -3.29909,-1.883833 -8.023213,0.0015 -8.023209,0.0015 -3.471334,1.887036 -3.471333,1.887037 -0.02111,10.028247 -0.02111,10.028248 1.206445,0.611268 C 85.3964,84.094546 86.968,84.903085 88.2253,85.555103 l 2.286,1.185487 8.0517,0.0024 8.0517,0.0024 z m 16.59051,13.752015 c -0.82189,-0.29358 -1.3754,-0.803417 -1.74525,-1.607549 -0.27876,-0.606102 -0.26194,-1.67449 0.0364,-2.310629 0.279,-0.594937 0.78397,-1.098659 1.40913,-1.405642 0.41732,-0.204929 0.58771,-0.238658 1.20567,-0.238658 0.61079,0 0.79021,0.03464 1.1859,0.228983 0.60859,0.298898 1.15452,0.84193 1.42961,1.422017 0.18415,0.388321 0.22083,0.585201 0.22083,1.185333 0,0.61066 -0.0347,0.790201 -0.22878,1.185334 -0.49498,1.007523 -1.38709,1.610423 -2.46593,1.666508 -0.44213,0.02298 -0.72704,-0.0112 -1.04758,-0.125697 z m 1.57832,-0.65818 c 0.83165,-0.246974 1.52897,-1.190109 1.52897,-2.067965 0,-0.122796 -0.06,-0.425361 -0.13337,-0.672366 -0.24698,-0.831652 -1.19011,-1.528967 -2.06797,-1.528967 -0.12279,0 -0.42536,0.06002 -0.67236,0.133369 -0.83166,0.246974 -1.52897,1.190109 -1.52897,2.067964 0,0.855174 0.69747,1.818663 1.49352,2.06316 0.53907,0.165568 0.83536,0.166599 1.38018,0.0048 z m -61.181811,-0.19489 c -1.100346,-0.408715 -1.720557,-1.372969 -1.720557,-2.674987 0,-2.85738 3.021998,-5.105703 6.503282,-4.838349 0.662316,0.05086 3.876245,0.79229 3.793425,0.87511 -0.0211,0.0211 -0.755813,0.22538 -1.6327,0.453961 -1.651169,0.430416 -2.854383,0.931049 -3.643068,1.515808 l -0.355394,0.263502 0.252967,0.398107 c 0.715685,1.126312 0.621267,2.39357 -0.248648,3.337316 -0.503884,0.546649 -1.013956,0.770474 -1.833034,0.804352 -0.513602,0.02124 -0.784057,-0.01142 -1.116273,-0.13482 z m 1.900716,-0.736267 c 1.291456,-0.64356 1.468548,-2.32563 0.346008,-3.286482 l -0.35656,-0.305202 0.205473,-0.21982 c 0.591675,-0.632987 1.987297,-1.461687 3.204831,-1.90298 0.498534,-0.180693 0.525036,-0.20226 0.316933,-0.257915 -0.505751,-0.135259 -1.488692,-0.169863 -2.173291,-0.07651 -2.260852,0.30829 -3.806425,1.436926 -4.332299,3.163609 -0.301607,0.990315 -0.117647,2.039114 0.450559,2.568738 0.595372,0.554945 1.589814,0.689572 2.338346,0.316562 z m 53.315285,-2.601137 c -0.80976,-0.38715 -1.29552,-1.071429 -1.37386,-1.935335 -0.12792,-1.410756 0.93102,-2.561865 2.35675,-2.561865 2.0469,0 3.09305,2.407671 1.7109,3.937547 -0.4508,0.498981 -0.88112,0.691303 -1.63368,0.730134 -0.5382,0.02777 -0.6998,0.0018 -1.06011,-0.170481 z m 1.88871,-0.757334 c 0.36356,-0.240588 0.78042,-0.951656 0.77959,-1.329794 -0.002,-1.087694 -1.09823,-1.971983 -2.10713,-1.700316 -0.68774,0.185189 -1.27313,0.934574 -1.2772,1.634993 -0.002,0.379797 0.18752,0.868392 0.44668,1.150294 0.51315,0.55819 1.51311,0.671631 2.15806,0.244823 z m 6.15804,-0.5732 c -1.36068,-0.243138 -2.69303,-1.086465 -3.68135,-2.330159 -0.724,-0.911071 -1.12321,-1.762298 -1.56718,-3.341644 -0.21599,-0.76835 -0.42997,-1.51103 -0.47551,-1.650401 -0.0629,-0.192485 0.24861,0.07404 1.2958,1.108682 0.75823,0.749146 1.55005,1.477279 1.7596,1.618075 0.39718,0.266862 1.55609,0.871126 1.67005,0.870776 0.0361,-1.1e-4 0.17521,-0.209946 0.30916,-0.4663 0.45182,-0.864697 1.3018,-1.39227 2.26354,-1.404959 0.8801,-0.01161 1.40162,0.181295 1.96034,0.725127 0.72101,0.70179 1.0141,1.885689 0.70055,2.829719 -0.27001,0.812919 -1.18744,1.604335 -2.22073,1.915712 -0.53323,0.160683 -1.48509,0.219929 -2.01427,0.125372 z m 1.50377,-0.71639 c 1.05311,-0.223155 1.86098,-0.827997 2.07933,-1.556761 0.30595,-1.02119 -0.19563,-2.123448 -1.14786,-2.522482 -0.36563,-0.153219 -1.14186,-0.14453 -1.52943,0.01712 -0.66105,0.275712 -1.19814,1.02102 -1.20193,1.667876 -0.001,0.174625 -0.0189,0.3175 -0.0398,0.3175 -0.0209,0 -0.3352,-0.0943 -0.6985,-0.20955 -0.8072,-0.256078 -1.75143,-0.800499 -2.65858,-1.532882 -0.75356,-0.608382 -0.7665,-0.593138 -0.32161,0.378745 0.76024,1.660767 2.41007,3.111282 3.90933,3.437051 0.68709,0.149293 0.91819,0.149779 1.60907,0.0034 z M 64.688229,91.478848 c -0.936807,-0.120227 -1.743867,-0.736338 -2.180253,-1.664409 -0.562683,-1.196667 -0.190312,-2.673115 0.87059,-3.451889 0.601559,-0.441585 1.057972,-0.571245 1.883073,-0.534953 0.834344,0.0367 1.363238,0.261747 1.890766,0.804533 0.596029,0.613268 0.753157,1.034355 0.753157,2.01838 0,1.00135 -0.149771,1.388578 -0.781352,2.020159 -0.662297,0.662297 -1.474092,0.931624 -2.435981,0.808179 z m 1.312333,-0.845522 c 0.803875,-0.363885 1.269124,-1.091806 1.267313,-1.982816 -0.0025,-1.240002 -0.919424,-2.157346 -2.156313,-2.157346 -0.588629,0 -1.220818,0.257191 -1.582509,0.643804 -0.761993,0.814499 -0.761993,2.212585 0,3.027084 0.573834,0.613374 1.686469,0.824634 2.471509,0.469274 z m 4.021666,-1.599278 c -0.497394,-0.07628 -1.222122,-0.504836 -1.498522,-0.886136 -0.904004,-1.247094 -0.465964,-2.944252 0.924182,-3.580682 0.406161,-0.185947 0.55044,-0.208175 1.132531,-0.174478 0.585601,0.0339 0.719402,0.07394 1.095541,0.327854 0.767605,0.518172 1.154042,1.313423 1.073594,2.209354 -0.121722,1.355581 -1.36311,2.313292 -2.727326,2.104088 z m 1.371061,-0.98361 c 1.015981,-0.808346 0.890681,-2.254318 -0.245854,-2.837167 -0.616546,-0.316183 -1.508823,-0.153775 -1.990178,0.362244 -0.203516,0.218171 -0.447648,0.828454 -0.44689,1.11714 8.85e-4,0.336784 0.174866,0.809 0.39403,1.069461 0.371448,0.441441 0.75466,0.597285 1.399892,0.569306 0.483238,-0.02095 0.614205,-0.06235 0.889,-0.280984 z m 62.212661,-0.825691 c -0.5905,-0.219605 -0.75676,-0.33003 -3.03506,-2.015819 -0.93793,-0.69401 -2.23168,-1.645718 -2.875,-2.114907 -0.64331,-0.46919 -1.157,-0.865727 -1.14154,-0.881195 0.0576,-0.05755 6.78909,1.412998 7.40285,1.617194 0.85547,0.28461 1.68913,0.909882 1.98416,1.488175 0.22099,0.433185 0.21672,1.109066 -0.009,1.474814 -0.37879,0.612899 -1.35283,0.793687 -2.32608,0.431738 z m 1.59819,-0.654715 c 0.47434,-0.373116 0.19092,-1.165366 -0.59719,-1.669353 -0.5474,-0.350053 -1.18789,-0.545591 -3.2409,-0.989422 -1.50927,-0.326281 -1.91912,-0.388557 -1.77377,-0.269521 0.74709,0.611853 3.67583,2.662996 4.0658,2.847478 0.66221,0.313279 1.21387,0.342116 1.54606,0.08082 z m -73.166825,-1.30442 c -1.354847,-0.4229 -1.701781,-1.659006 -0.705078,-2.512147 0.72643,-0.621796 1.431771,-0.698013 4.578847,-0.49477 1.376363,0.08889 3.167837,0.203118 3.981054,0.253846 0.813217,0.05073 1.487299,0.100956 1.497961,0.111618 0.04474,0.04474 -6.511507,2.381594 -7.198064,2.565611 -0.834957,0.223793 -1.595022,0.250546 -2.15472,0.07584 z m 1.602191,-0.635301 c 0.732371,-0.133608 4.35393,-1.462687 4.169257,-1.53008 -0.08646,-0.03155 -0.671551,-0.0841 -1.300201,-0.116781 -0.62865,-0.03268 -1.56765,-0.09262 -2.086666,-0.133209 -0.575808,-0.04503 -1.167342,-0.04212 -1.517465,0.0075 -0.999859,0.141597 -1.61289,0.631294 -1.43074,1.142892 0.206562,0.580164 1.066651,0.830236 2.165815,0.629713 z m 63.932454,-8.271156 0.0236,-1.170644 0.71375,-0.06464 c 0.39257,-0.03555 0.72232,-0.07365 0.73279,-0.08467 0.0366,-0.03846 0.0551,-0.276359 0.0452,-0.578692 l -0.01,-0.304667 -0.61384,-0.01725 c -1.07652,-0.03025 -0.99457,0.08085 -0.99653,-1.351096 -0.001,-1.02168 -0.0367,-1.376135 -0.201,-2.015841 l -0.1993,-0.776187 2.63516,-0.654081 c 2.49878,-0.620228 3.08346,-0.780966 2.88917,-0.794282 -0.0466,-0.0032 -1.31457,0.131366 -2.8178,0.299016 -1.50322,0.167649 -2.78066,0.286576 -2.83876,0.264281 -0.0911,-0.03497 -0.44081,-1.231305 -0.37776,-1.292427 0.0126,-0.01226 1.05169,-0.44159 2.30899,-0.954074 2.56399,-1.0451 3.14429,-1.298607 2.83633,-1.239065 -0.11642,0.02251 -1.36959,0.327119 -2.78483,0.676914 -1.41524,0.349794 -2.58377,0.625383 -2.59673,0.612421 -0.013,-0.01296 -0.12351,-0.417831 -0.24566,-0.899707 -0.14616,-0.576615 -0.39384,-1.218771 -0.7245,-1.878381 l -0.5024,-1.002244 0.65423,-0.395579 c 0.35982,-0.217568 0.66656,-0.406852 0.68163,-0.42063 0.0315,-0.02876 -0.2207,-0.541461 -0.34,-0.691311 -0.0595,-0.07472 -0.25408,-0.02558 -0.76553,0.193327 -0.37716,0.161434 -0.71323,0.263669 -0.74681,0.227189 -0.10825,-0.117582 -1.0114,-1.855605 -1.0114,-1.94633 0,-0.04824 0.27623,-0.184902 0.61384,-0.303699 2.98454,-1.050191 5.22437,-1.840445 6.30804,-2.225596 0.71036,-0.252469 1.32927,-0.459034 1.37537,-0.459034 0.0461,0 0.40998,0.651484 0.80863,1.447743 0.67892,1.356066 0.71514,1.454931 0.57197,1.561252 -0.0841,0.06243 -1.58996,1.13497 -3.34643,2.383423 -2.85745,2.031001 -3.44832,2.480672 -3.09292,2.353827 0.35871,-0.128026 7.66216,-1.902929 7.75449,-1.884514 0.0705,0.01407 0.23799,0.517916 0.44364,1.334935 0.18168,0.721783 0.33058,1.350433 0.33089,1.397 3.1e-4,0.04657 -0.84394,0.425421 -1.87611,0.841898 -1.03218,0.416477 -1.83743,0.770317 -1.78945,0.786309 0.048,0.01599 0.88621,-0.06759 1.86273,-0.185731 0.97653,-0.118145 1.85337,-0.21481 1.94856,-0.21481 0.15323,0 0.21341,0.161276 0.52541,1.407938 0.19379,0.774366 0.3414,1.416705 0.32801,1.427419 -0.0134,0.01071 -1.75789,0.449138 -3.87667,0.974276 -3.47137,0.860375 -4.31692,1.101034 -3.86845,1.101034 0.11777,0 2.59837,0.279275 7.3361,0.825926 0.4864,0.05612 0.55312,0.0864 0.60539,0.27474 0.0323,0.116417 0.0626,0.862658 0.0672,1.658313 l 0.008,1.446645 -4.2545,0.698474 c -2.33998,0.38416 -4.32227,0.717159 -4.4051,0.739998 -0.13989,0.03857 -0.14892,-0.04169 -0.127,-1.129119 z m 4.76493,-1.594643 c 1.61179,-0.175332 1.92611,-0.218116 1.88732,-0.2569 -0.0385,-0.03854 -1.90397,-0.253963 -2.92449,-0.337726 l -0.69849,-0.05733 v 0.375701 c 0,0.445649 0.0344,0.492202 0.32749,0.442779 0.12256,-0.02067 0.75624,-0.0956 1.40817,-0.166521 z m -3.26064,-14.202167 c 0.82934,-0.523875 1.49475,-0.966308 1.47869,-0.983184 -0.0474,-0.04979 -3.22489,1.11588 -3.33246,1.222512 -0.0394,0.03906 0.25253,0.713172 0.30884,0.713172 0.0204,0 0.7156,-0.428625 1.54493,-0.9525 z m -67.838188,15.450649 -1.0795,-0.02521 V 74.84853 73.709275 l 1.545167,0.04039 c 3.376802,0.08826 5.535643,0.114512 5.754594,0.06997 0.285884,-0.05816 0.390191,-0.333112 0.198936,-0.524393 -0.119888,-0.119906 -0.491501,-0.146264 -2.739201,-0.194288 -1.430273,-0.03056 -3.076746,-0.05909 -3.658829,-0.0634 l -1.058333,-0.0078 0.02848,-1.121936 c 0.01567,-0.617064 0.03562,-1.12919 0.04434,-1.138057 0.0087,-0.0089 1.634465,0.01533 3.612758,0.05376 3.876202,0.07531 3.911311,0.07962 4.53712,0.556945 0.649699,0.49555 0.957142,1.815481 0.67715,2.907171 -0.169643,0.661437 -0.488937,1.151683 -0.970597,1.490263 l -0.366056,0.257317 -2.723268,0.0015 c -1.497797,8.32e-4 -3.209042,-0.0098 -3.802767,-0.0237 z m 3.597632,-6.483766 c -2.247227,-0.566161 -4.090175,-1.067483 -4.095438,-1.11405 -0.0053,-0.04657 0.07837,-0.457203 0.18586,-0.912526 0.161662,-0.684812 0.225613,-0.834054 0.370105,-0.863712 0.09607,-0.01972 0.955725,-0.08132 1.910341,-0.136899 0.954617,-0.05558 1.802753,-0.125097 1.884747,-0.154494 0.08745,-0.03135 -0.621385,-0.244847 -1.7145,-0.516397 -1.228066,-0.305075 -1.86358,-0.500259 -1.86358,-0.572357 0,-0.179964 0.357304,-1.579534 0.421773,-1.652097 0.05003,-0.05631 8.420088,1.979156 8.507986,2.069009 0.01622,0.01658 -0.07182,0.454847 -0.195638,0.973934 l -0.225122,0.943794 -1.642567,0.06184 c -0.903413,0.03401 -1.836863,0.0867 -2.074334,0.11709 -0.424206,0.05428 -0.403603,0.06232 1.176902,0.458938 0.884766,0.222027 1.746444,0.44005 1.91484,0.484496 l 0.306174,0.08081 -0.218364,0.888787 c -0.190013,0.77339 -0.240757,0.887775 -0.390841,0.881003 -0.09486,-0.0043 -2.011117,-0.471006 -4.258344,-1.037167 z m 5.398201,-4.279993 c -1.641013,-0.656218 -7.581961,-3.075463 -7.602252,-3.095754 -0.0213,-0.0213 0.730608,-1.981463 0.790844,-2.061645 0.02874,-0.03826 8.020693,3.191094 8.104376,3.274777 0.09246,0.09246 -0.687602,2.044136 -0.814944,2.038938 -0.05336,-0.0022 -0.268474,-0.07252 -0.478024,-0.156316 z m -2.370666,-4.625677 c -2.16535,-0.902338 -3.9751,-1.656332 -4.021667,-1.675543 -0.04946,-0.0204 -0.02268,-0.136507 0.0644,-0.279216 0.08199,-0.134358 0.348687,-0.577197 0.592667,-0.984086 0.24398,-0.40689 0.485897,-0.740265 0.537593,-0.740834 0.08606,-9.46e-4 0.557211,0.208066 2.192007,0.972412 0.960328,0.449 2.569701,1.218168 2.949694,1.409748 0.193768,0.09769 0.329054,0.152861 0.300635,0.122598 -0.06069,-0.06462 -1.030117,-0.778666 -1.787749,-1.316784 -1.388504,-0.986204 -3.028914,-2.230796 -3.028914,-2.298062 0,-0.04118 0.262255,-0.514257 0.582788,-1.051277 l 0.582787,-0.9764 1.089379,0.877692 c 0.599159,0.482731 2.156179,1.725141 3.460046,2.760913 1.303867,1.035771 2.370667,1.908549 2.370667,1.939506 0,0.03096 -0.380199,0.694462 -0.844886,1.474453 -0.521356,0.875113 -0.894199,1.41574 -0.973666,1.41183 -0.07083,-0.0035 -1.900432,-0.744613 -4.065781,-1.64695 z m 54.567661,-1.669857 c -0.32596,-0.474369 -0.60338,-0.886315 -0.61647,-0.915436 -0.0131,-0.02912 1.2061,-0.914119 2.70933,-1.966662 1.50323,-1.052543 2.80672,-1.967911 2.89665,-2.034152 0.15751,-0.116016 0.14909,-0.140647 -0.22938,-0.671015 l -0.39288,-0.550578 0.67698,-0.476506 c 0.37234,-0.262079 0.70416,-0.475388 0.73737,-0.474022 0.0332,0.0014 0.34327,0.410942 0.68899,0.910167 0.34572,0.499225 0.96485,1.389721 1.37583,1.97888 0.41099,0.589159 0.74657,1.103509 0.74574,1.143 -0.002,0.07575 -1.23196,0.960919 -1.33527,0.960638 -0.0331,-9e-5 -0.19046,-0.191244 -0.34963,-0.424787 -0.15918,-0.233542 -0.33832,-0.465211 -0.39809,-0.514818 -0.11722,-0.09728 -0.0728,-0.126259 -3.75111,2.447411 -1.0908,0.763222 -2.02425,1.401782 -2.07433,1.419022 -0.0501,0.01724 -0.35776,-0.356773 -0.68373,-0.831142 z M 73.695467,58.105179 C 73.387415,57.861712 72.834965,57.416816 72.4678,57.11652 c -0.367164,-0.300295 -1.372422,-1.11729 -2.233905,-1.815543 -0.861483,-0.698254 -1.842558,-1.493551 -2.180166,-1.767328 -0.337609,-0.273777 -0.613834,-0.515234 -0.613834,-0.53657 0,-0.05704 2.303006,-2.912233 2.349011,-2.912233 0.0782,0 1.28397,0.975578 1.287758,1.041917 0.0021,0.03754 -0.186602,0.303686 -0.419436,0.591441 -0.232833,0.287755 -0.421978,0.561842 -0.420322,0.609083 0.0035,0.09868 1.136258,1.017225 1.254493,1.017225 0.04308,0 0.260111,-0.220812 0.482292,-0.490693 0.227014,-0.275752 0.451711,-0.472371 0.512964,-0.448866 0.05995,0.023 0.354919,0.243107 0.655488,0.489116 l 0.546489,0.447289 -0.42216,0.530536 c -0.232188,0.291795 -0.409429,0.564768 -0.393869,0.606608 0.03023,0.08129 1.389007,1.194343 1.458014,1.194343 0.02259,0 0.275289,-0.28664 0.56156,-0.636977 l 0.520494,-0.636978 0.395112,0.32626 c 0.96574,0.79745 1.018274,0.861637 -2.435943,-2.976287 -1.37662,-1.52954 -2.509212,-2.80589 -2.516872,-2.836333 -0.0152,-0.06039 1.221841,-1.175667 2.14432,-1.933265 0.691296,-0.567736 0.988815,-0.704419 1.533311,-0.704419 0.475885,0 0.939242,0.257735 1.535735,0.854227 0.83019,0.830191 1.02852,1.426107 0.668503,2.008627 -0.175456,0.283894 -0.176626,0.29678 -0.02117,0.233069 0.778045,-0.31886 1.123005,-0.209462 1.900225,0.602628 0.963018,1.006223 1.820333,1.977835 1.820333,2.063019 0,0.09285 -1.372129,1.350429 -1.473438,1.350429 -0.03968,0 -0.332957,-0.295275 -0.651733,-0.656166 -1.039934,-1.177326 -1.923582,-2.053167 -2.071468,-2.053167 -0.07971,0 -0.229139,0.06818 -0.332054,0.15152 l -0.18712,0.15152 0.530934,0.589314 c 0.292014,0.324122 0.835928,0.923821 1.208698,1.332663 0.372771,0.408843 0.731101,0.8195 0.79629,0.91257 0.12632,0.180348 0.123767,0.183307 -1.008282,1.168549 -0.170229,0.148153 -0.908372,1.01153 -1.640318,1.918616 -0.731947,0.907086 -1.335619,1.648423 -1.341494,1.647415 -0.0059,-10e-4 -0.262724,-0.201033 -0.570776,-0.4445 z m 1.399502,-8.429629 c 0.111846,-0.216286 0.108958,-0.264318 -0.02927,-0.486833 -0.281776,-0.453605 -0.820092,-0.966538 -1.014369,-0.966538 -0.222863,0 -0.515439,0.143419 -0.515439,0.252666 0,0.127064 1.209957,1.440667 1.326995,1.440667 0.05939,0 0.16383,-0.107983 0.232079,-0.239962 z m 45.219261,6.401388 c -0.66905,-0.238482 -1.4357,-0.974726 -1.78732,-1.716426 -0.26379,-0.556425 -0.27665,-1.35939 -0.0299,-1.869046 0.2482,-0.51272 3.32608,-3.502617 4.22524,-4.104462 0.47486,-0.317847 0.96082,-0.450091 1.42177,-0.38691 0.83089,0.113886 1.81951,0.876148 2.27768,1.756186 0.31854,0.611825 0.33541,1.455004 0.0403,2.015431 -0.3646,0.692456 -3.80769,3.916851 -4.5391,4.25079 -0.37938,0.173216 -1.19775,0.200909 -1.60866,0.05444 z m 0.45339,-1.876708 c 0.42508,-0.313612 4.08291,-3.780165 4.13672,-3.920402 0.0263,-0.06843 -0.0321,-0.204296 -0.12976,-0.301925 -0.14815,-0.148153 -0.21128,-0.162122 -0.38171,-0.08447 -0.19752,0.09 -2.29224,1.99955 -3.63414,3.312902 -0.67595,0.66156 -0.8013,0.934234 -0.508,1.105061 0.20318,0.118345 0.20689,0.117547 0.51689,-0.111167 z m -4.45213,-1.735744 -0.7814,-0.576469 0.52268,-0.711086 c 1.69332,-2.303668 1.80983,-2.537495 1.40552,-2.820684 -0.18001,-0.126082 -0.20606,-0.10083 -0.97791,0.947699 -0.43614,0.592478 -0.95299,1.314151 -1.14857,1.603718 -0.19557,0.289567 -0.37463,0.526806 -0.39792,0.527198 -0.0233,3.92e-4 -0.51858,-0.352219 -1.10066,-0.783579 -0.677,-0.501699 -1.32527,-0.901521 -1.79917,-1.109643 -0.40746,-0.178943 -0.7407,-0.349001 -0.74053,-0.377906 1.7e-4,-0.0289 0.11433,-0.357355 0.2537,-0.729888 0.13936,-0.372534 0.25352,-0.686084 0.25369,-0.696779 5.6e-4,-0.03538 -0.66886,-0.361555 -0.74201,-0.361555 -0.0395,0 -0.23414,0.3048 -0.43263,0.677334 -0.1985,0.372533 -0.37759,0.677333 -0.39797,0.677333 -0.0204,0 -0.45598,-0.189005 -0.96797,-0.420011 -0.512,-0.231006 -1.33946,-0.538064 -1.8388,-0.682351 -0.49935,-0.144286 -0.91708,-0.271518 -0.9283,-0.282736 -0.0112,-0.01122 -0.0502,-0.951936 -0.0867,-2.090483 l -0.0663,-2.070085 -0.54419,1.883833 c -0.2993,1.036108 -0.58669,1.883833 -0.63866,1.883833 -0.10297,0 -1.57734,-0.418749 -1.66517,-0.47294 -0.0399,-0.02463 1.92529,-7.025705 2.33054,-8.302544 0.0558,-0.175694 0.0575,-0.175573 0.91037,0.06214 0.46997,0.130998 0.87446,0.25814 0.89886,0.282539 0.038,0.03799 0.16632,2.614954 0.18795,3.774136 0.0101,0.541779 0.0756,0.375083 0.64041,-1.629834 0.2722,-0.966258 0.53518,-1.755294 0.5844,-1.753413 0.0492,0.0019 0.45144,0.109851 0.89382,0.239934 0.68386,0.201091 0.80006,0.260814 0.77582,0.398747 -0.0157,0.08923 -0.48135,1.741261 -1.03482,3.671185 -0.55348,1.929923 -0.99697,3.518299 -0.98555,3.529723 0.0209,0.02088 0.5921,-0.889474 2.13214,-3.398009 1.73175,-2.820803 1.9475,-3.159599 1.99383,-3.130962 0.0262,0.01618 0.6037,0.276238 1.28336,0.577902 0.67966,0.301664 1.33147,0.599461 1.44847,0.66177 l 0.21273,0.11329 -1.04922,3.767667 c -0.57707,2.072216 -1.03827,3.802009 -1.02488,3.843984 0.0134,0.04198 0.68593,-0.834325 1.49454,-1.947333 0.80862,-1.113008 1.66691,-2.290351 1.90731,-2.616318 0.2404,-0.325967 0.60239,-0.829129 0.80441,-1.118139 0.20805,-0.297624 0.40711,-0.501637 0.45909,-0.470502 0.44359,0.265712 2.29773,1.685602 2.68258,2.054308 0.56979,0.545892 0.72953,0.965157 0.59968,1.573959 -0.10638,0.498803 -0.55217,1.229925 -1.08766,1.783835 -0.37932,0.392373 -0.48014,0.452136 -0.762,0.451684 -0.17866,-2.87e-4 -0.42961,-0.05518 -0.55766,-0.121979 -0.12806,-0.0668 -0.23284,-0.106683 -0.23284,-0.08863 0,0.01806 0.0952,0.211972 0.21167,0.430922 0.26057,0.490061 0.26381,0.665079 0.0212,1.141687 -0.26815,0.526703 -1.92745,2.787937 -2.04259,2.783571 -0.0524,-0.002 -0.44688,-0.263023 -0.87665,-0.580081 z m 2.69917,-5.406474 c 0.66363,-0.73549 0.76864,-1.094113 0.41428,-1.414802 -0.15556,-0.140785 -0.18236,-0.117881 -0.75463,0.645 -0.58898,0.785155 -0.59207,0.792058 -0.41983,0.939136 0.26038,0.222356 0.44359,0.181547 0.76018,-0.169334 z m -6.06682,-2.481606 c 0.3128,-0.934143 0.55423,-1.712941 0.5365,-1.730664 -0.0322,-0.03225 -1.08776,1.691215 -1.59161,2.59882 l -0.2676,0.482049 0.32288,0.170376 c 0.17759,0.09371 0.34723,0.172059 0.377,0.174117 0.0298,0.0021 0.31003,-0.760556 0.62283,-1.694698 z m -32.367129,6.467819 c -0.153367,-0.07559 -0.430372,-0.309569 -0.615565,-0.51996 -0.385744,-0.438228 -0.884599,-1.270961 -0.807541,-1.348019 0.02854,-0.02854 0.423152,-0.273637 0.876921,-0.544665 0.690486,-0.412415 0.838843,-0.472323 0.909702,-0.367349 0.04657,0.06899 0.236707,0.373838 0.422534,0.677447 0.377337,0.616504 0.544032,0.71477 0.860623,0.507331 0.18131,-0.118798 0.208056,-0.185361 0.164418,-0.409188 -0.06181,-0.317042 -0.429751,-0.864577 -0.731078,-1.087925 -0.173284,-0.128441 -0.467287,-0.175997 -1.520074,-0.245876 -1.540288,-0.102237 -1.946936,-0.237841 -2.459527,-0.820175 -0.184648,-0.209771 -0.468963,-0.647731 -0.63181,-0.973244 -0.504907,-1.009249 -0.38464,-1.763822 0.395278,-2.480024 0.996661,-0.915239 2.315965,-1.292557 3.10751,-0.888741 0.214864,0.109615 0.468269,0.376985 0.767391,0.809681 0.245628,0.355312 0.433127,0.6575 0.416665,0.671527 -0.118475,0.100956 -1.785711,1.071457 -1.803267,1.049685 -0.01222,-0.01515 -0.124767,-0.205293 -0.250108,-0.422533 -0.290882,-0.504157 -0.42262,-0.609993 -0.679146,-0.545609 -0.30297,0.07604 -0.345409,0.334013 -0.128622,0.781836 0.288049,0.595028 0.48563,0.674197 1.837183,0.736137 1.583266,0.07256 1.968774,0.194791 2.562176,0.812375 0.619646,0.644897 1.18352,1.732323 1.18352,2.282407 0,0.822539 -0.945547,1.867232 -2.071224,2.288401 -0.579941,0.216984 -1.405864,0.233668 -1.805959,0.03648 z m 4.440532,-2.165879 c -0.704206,-1.666775 -1.913424,-4.514426 -2.519456,-5.933201 -0.414274,-0.969852 -0.753226,-1.793387 -0.753226,-1.830077 0,-0.05953 1.656238,-0.804712 1.930043,-0.868378 0.06938,-0.01613 0.295618,0.410276 0.615377,1.159823 0.278116,0.651933 0.599787,1.394883 0.714824,1.651 0.115037,0.256116 0.586794,1.361016 1.048349,2.455333 0.461555,1.094316 0.918373,2.171895 1.015151,2.394619 l 0.17596,0.404952 -0.188686,0.07311 c -0.103777,0.04021 -0.54768,0.229458 -0.986452,0.420548 -0.438772,0.19109 -0.828785,0.347436 -0.866697,0.347436 -0.03791,0 -0.121246,-0.123825 -0.185187,-0.275165 z m 3.387497,-1.143 c -0.02116,-0.03493 -0.485151,-1.53035 -1.03108,-3.323167 -0.545929,-1.792816 -1.007469,-3.285181 -1.025643,-3.316366 -0.01817,-0.03119 -0.320926,0.03212 -0.67278,0.14068 -0.453624,0.139958 -0.650297,0.168769 -0.676036,0.09903 -0.103519,-0.280457 -0.457248,-1.52696 -0.438608,-1.545601 0.03558,-0.03558 4.750216,-1.471742 4.762502,-1.450746 0.04973,0.08498 0.471159,1.60653 0.449907,1.624351 -0.01509,0.01266 -0.294141,0.109548 -0.620108,0.215316 -0.325967,0.105768 -0.603856,0.201501 -0.617531,0.21274 -0.01368,0.01124 0.433999,1.516584 0.994833,3.345212 0.560834,1.828628 1.019698,3.350946 1.019698,3.38293 0,0.04892 -1.908996,0.679118 -2.05719,0.679118 -0.02721,0 -0.0668,-0.02857 -0.08796,-0.0635 z m 2.394121,-1.133822 c -0.0028,-0.249523 -0.05505,-2.244378 -0.116191,-4.433011 -0.06114,-2.188633 -0.08745,-4.001723 -0.05847,-4.029088 0.07877,-0.07438 3.141476,-0.530349 3.196012,-0.475813 0.08653,0.08653 2.655937,8.313696 2.623751,8.401169 -0.03092,0.08404 -2.139587,0.439683 -2.202031,0.371388 -0.01726,-0.01888 -0.106884,-0.358173 -0.199164,-0.75399 l -0.167783,-0.719666 -0.329047,0.02407 c -0.562694,0.04116 -0.55009,0.01816 -0.48868,0.891794 l 0.05573,0.792764 -0.964047,0.146145 c -0.530225,0.08038 -1.049771,0.166794 -1.154546,0.192031 -0.179137,0.04315 -0.1908,0.01882 -0.195533,-0.407794 z m 2.70956,-3.177043 c 0.03987,-0.03485 -0.736893,-3.170396 -0.856478,-3.457301 -0.07345,-0.176229 -0.01351,2.722943 0.06783,3.280648 l 0.04628,0.317316 0.352422,-0.05393 c 0.193833,-0.02966 0.36931,-0.06869 0.38995,-0.08673 z m 4.384991,2.84291 C 97.146475,46.090472 96.466326,45.552849 96.30578,45.009286 96.25692,44.843861 96.194275,44.311895 96.166568,43.827139 l -0.05038,-0.881373 0.71135,0.05537 c 0.391243,0.03045 0.873276,0.05559 1.071184,0.05587 l 0.359833,5.08e-4 v 0.798285 c 0,0.612826 0.03091,0.829196 0.133048,0.931334 0.168805,0.168805 0.410374,0.170197 0.577245,0.0033 0.271194,-0.271195 0.275642,-1.210723 0.0077,-1.620203 -0.06608,-0.100975 -0.578057,-0.512505 -1.137726,-0.914511 -1.448554,-1.040485 -1.65457,-1.367611 -1.65457,-2.627231 0,-1.038964 0.143422,-1.491871 0.599585,-1.893402 0.796838,-0.701405 2.343941,-0.789667 3.506543,-0.20005 0.63436,0.321714 0.81432,0.662449 0.89328,1.691285 l 0.0601,0.783167 h -1.06924 -1.069258 l -0.0013,-0.5715 c -7.13e-4,-0.314325 -0.02929,-0.612379 -0.0635,-0.662342 -0.123022,-0.179663 -0.35137,-0.196103 -0.544899,-0.03923 -0.164789,0.133577 -0.194197,0.23592 -0.191766,0.667372 0.0035,0.623181 0.06489,0.7007 1.097795,1.386424 0.4191,0.278233 0.942878,0.681589 1.163948,0.896348 0.58244,0.565798 0.6989,0.935896 0.69785,2.217593 -7.7e-4,0.935379 -0.0231,1.100142 -0.19224,1.418203 -0.22011,0.413911 -0.64513,0.71121 -1.290936,0.902993 -0.485318,0.144124 -1.365955,0.163776 -1.88277,0.04202 z"
       id="path8" /></g></svg>
